<svg xmlns="http://www.w3.org/2000/svg" xmlns:xlink="http://www.w3.org/1999/xlink" viewBox="0 0 126.5 105.7"><defs><style>.cls-1,.cls-3{fill:#2e2e2e;}.cls-2{fill:url(#Sfumatura_senza_nome_280);}.cls-3{isolation:isolate;opacity:0.4;}.cls-4{fill:#afafaf;}.cls-5{fill:url(#Sfumatura_senza_nome_279);}.cls-6{fill:#4e4e4e;}</style><linearGradient id="Sfumatura_senza_nome_280" x1="33.79" y1="1488.71" x2="106.11" y2="1404.63" gradientTransform="matrix(1, 0, 0, -1, 0, 1501.53)" gradientUnits="userSpaceOnUse"><stop offset="0" stop-color="#646464"/><stop offset="1" stop-color="#646464"/></linearGradient><linearGradient id="Sfumatura_senza_nome_279" x1="65.31" y1="1421.4" x2="78.43" y2="1399.26" gradientTransform="matrix(1, 0, 0, -1, 0, 1501.53)" gradientUnits="userSpaceOnUse"><stop offset="0" stop-color="#e9e9e9"/><stop offset="1" stop-color="#b5b5b5"/></linearGradient></defs><g id="Livello_2" data-name="Livello 2"><g id="Livello_1-2" data-name="Livello 1"><path class="cls-1" d="M70.3,105.7A50.8,50.8,0,1,0,19.6,54.9,50.72,50.72,0,0,0,70.3,105.7Z"/><path class="cls-1" d="M117.7,21.6a4.1,4.1,0,1,0-4.1-4.1A4.09,4.09,0,0,0,117.7,21.6Z"/><path class="cls-1" d="M123.7,5.6a2.8,2.8,0,1,0-2.8-2.8A2.8,2.8,0,0,0,123.7,5.6Z"/><path class="cls-1" d="M22.3,21.5a2.8,2.8,0,1,0-2.8-2.8A2.8,2.8,0,0,0,22.3,21.5Z"/><path class="cls-1" d="M5.2,75.5A5.2,5.2,0,1,0,0,70.3,5.2,5.2,0,0,0,5.2,75.5Z"/><path class="cls-2" d="M104.53,94.54,36.9,95a7.11,7.11,0,0,1-7.14-7l-.53-64.71a7.09,7.09,0,0,1,7-7.13l67.64-.49a7.12,7.12,0,0,1,7.14,7l.52,64.71A7.1,7.1,0,0,1,104.53,94.54Z"/><path class="cls-3" d="M100.72,84.88l-59.45.45a3,3,0,0,1-3.06-3l-.45-53.48a3,3,0,0,1,3-3.05l59.46-.45a3,3,0,0,1,3.05,3l.46,53.48A3,3,0,0,1,100.72,84.88Z"/><path class="cls-1" d="M72,64.81,50.28,65,61,52.58Z"/><path class="cls-4" d="M90,64.66l-31.27.23L74.17,47.11Z"/><path class="cls-1" d="M61,47.14a4.1,4.1,0,1,0-5.78-.44A4.09,4.09,0,0,0,61,47.14Z"/><path class="cls-5" d="M85.44,92.2a20,20,0,0,1-1.32,3.87,15.15,15.15,0,0,1-6.66,6.59A14.9,14.9,0,0,1,67.53,104a15.2,15.2,0,0,1,6.13-29.77,16.18,16.18,0,0,1,7.67,4.11A15.12,15.12,0,0,1,85.44,92.2Z"/><path class="cls-6" d="M75.44,87.78H72V84.29a1.32,1.32,0,1,0-2.63,0v3.49H65.83a1.31,1.31,0,0,0-1.32,1.32,1.26,1.26,0,0,0,1.32,1.31h3.49V93.9a1.32,1.32,0,1,0,2.63,0V90.41h3.49a1.32,1.32,0,1,0,0-2.63Z"/></g></g></svg>