<svg xmlns="http://www.w3.org/2000/svg" xmlns:xlink="http://www.w3.org/1999/xlink" viewBox="0 0 109.78 127.32"><defs><style>.cls-1{fill:#2e2e2e;}.cls-2{fill:#949494;}.cls-3{fill:#4d4d4d;}.cls-4{fill:url(#Sfumatura_senza_nome_389);}.cls-5{fill:url(#Sfumatura_senza_nome_388);}.cls-6{fill:#4e4e4e;}</style><linearGradient id="Sfumatura_senza_nome_389" x1="56.78" y1="-1133.09" x2="56.78" y2="-1122.77" gradientTransform="matrix(1, 0, 0, -1, 0, -1052.83)" gradientUnits="userSpaceOnUse"><stop offset="0" stop-color="#949494"/><stop offset="0.99" stop-color="#707070"/></linearGradient><linearGradient id="Sfumatura_senza_nome_388" x1="49.81" y1="-1147.84" x2="67.34" y2="-1177.42" gradientTransform="matrix(1, 0, 0, -1, 0, -1052.83)" gradientUnits="userSpaceOnUse"><stop offset="0" stop-color="#e9e9e9"/><stop offset="1" stop-color="#b5b5b5"/></linearGradient></defs><g id="Livello_2" data-name="Livello 2"><g id="Livello_1-2" data-name="Livello 1"><path class="cls-1" d="M109.78,54.89A54.89,54.89,0,1,1,54.89,0,54.53,54.53,0,0,1,109.78,54.89Z"/><path class="cls-2" d="M97.07,90.08A55,55,0,0,1,14,91.5a26.3,26.3,0,0,1,6.5-3.64l2-.78c3.79-1.5,8.71-3.36,15.35-6.14a6.25,6.25,0,0,0,3.35-3.28A6.49,6.49,0,0,0,41.76,75V62.67a5.68,5.68,0,0,1-.58-.79,11.81,11.81,0,0,1-2-5.42L38.12,56c-3.22.78-3-2.64-3.79-9.21C34,44,34.4,43.47,35.62,43l1-1.36c-6.14-13.92-3.07-22.62,3-25.69-2-4.43-2.14-6-2.14-6s12.92,2.14,17.42,1.29c5.64-1.15,14.35.21,17.56,7.7,5.35,2.15,7.49,5.5,7.92,9.21.79,5.86-2.57,12.28-3.21,14.78.07.14.14.21.14.28.86.43,1.14,1.14.86,3.5C77.37,53,77.59,56.81,74.38,56l-2.86,5a11.63,11.63,0,0,0-.21,1.22c-.15.93-.08,2.78-.08,13a6.6,6.6,0,0,0,1,3.42,6.47,6.47,0,0,0,3,2.5.25.25,0,0,1,.15.07c7.35,3.07,12.63,5.07,16.48,6.57A26.56,26.56,0,0,1,97.07,90.08Z"/><path class="cls-3" d="M77.3,42.9c.29-1.57-.43-3.5-1-4.86a7.53,7.53,0,0,1-.28-.71c-2.5-5-8-7-13.28-7.28-13.49-.72-14.7,1.85-18.91-2,1.28,2,1.42,5.07-.57,8.92-1.43,2.71-4.15,3.93-6.5,4.71-6.14-13.92-3.07-22.62,3-25.69-2-4.43-2.14-6-2.14-6S50.54,12.13,55,11.28c5.64-1.15,14.35.21,17.56,7.7,5.35,2.15,7.42,5.5,7.92,9.21C81.23,34,78,40.33,77.3,42.9Z"/><path class="cls-4" d="M72.38,78.44v2.43H41.18V77.73a6.45,6.45,0,0,0,.58-2.64V62.67a5.68,5.68,0,0,1-.58-.79v-.71a10.62,10.62,0,0,0,2.58,3.07L53.53,71a6.24,6.24,0,0,0,7.93.14L70.59,63c.29-.28.64-.57.93-.85-.14.92-.07,2.78-.07,13A5.38,5.38,0,0,0,72.38,78.44Z"/><path class="cls-5" d="M76.71,111.13A27.23,27.23,0,0,1,75,116.31a20.32,20.32,0,0,1-8.91,8.8,19.93,19.93,0,0,1-13.26,1.76A20.3,20.3,0,0,1,61,87.1a21.51,21.51,0,0,1,10.25,5.49A20.23,20.23,0,0,1,76.71,111.13Z"/><path class="cls-6" d="M63.35,105.22H58.69v-4.66a1.76,1.76,0,1,0-3.52,0v4.66H50.51A1.75,1.75,0,0,0,48.74,107a1.7,1.7,0,0,0,1.77,1.77h4.66v4.66a1.76,1.76,0,0,0,3.52,0v-4.66h4.66a1.77,1.77,0,0,0,0-3.53Z"/></g></g></svg>