<svg xmlns="http://www.w3.org/2000/svg" xmlns:xlink="http://www.w3.org/1999/xlink" viewBox="0 0 120.1 102.09"><defs><style>.cls-1,.cls-2,.cls-3{fill:none;stroke-linecap:round;stroke-linejoin:round;}.cls-1{stroke:#d0d0d0;stroke-width:1.89px;}.cls-2{stroke:#a7a7a7;stroke-width:0.61px;}.cls-3{stroke:#313131;stroke-width:3px;}.cls-4{fill:#474747;}.cls-5{fill:url(#Sfumatura_senza_nome_458);}.cls-6{fill:#646464;}.cls-7{fill:#4a4a4a;}.cls-8{fill:#d0d0d0;}.cls-9{fill:url(#Sfumatura_senza_nome_457);}.cls-10{fill:#4e4e4e;}.cls-11{fill:#b5b5b5;}.cls-12{fill:url(#Sfumatura_senza_nome_455);}.cls-13{fill:url(#Sfumatura_senza_nome_455-2);}</style><linearGradient id="Sfumatura_senza_nome_458" x1="70.75" y1="-2832.76" x2="70.75" y2="-2921.06" gradientTransform="matrix(1, 0, 0, -1, 0, -2820.45)" gradientUnits="userSpaceOnUse"><stop offset="0" stop-color="#646464"/><stop offset="1" stop-color="#646464"/></linearGradient><linearGradient id="Sfumatura_senza_nome_457" x1="97.66" y1="-2826.82" x2="109.16" y2="-2846.38" gradientTransform="matrix(1, 0, 0, -1, 0, -2820.45)" gradientUnits="userSpaceOnUse"><stop offset="0" stop-color="#e9e9e9"/><stop offset="1" stop-color="#b5b5b5"/></linearGradient><linearGradient id="Sfumatura_senza_nome_455" x1="22.04" y1="-2821.29" x2="22.04" y2="-2834.81" gradientTransform="matrix(1, 0, 0, -1, 0, -2820.45)" gradientUnits="userSpaceOnUse"><stop offset="0" stop-color="#b9b9b9"/><stop offset="1" stop-color="#9d9d9d"/></linearGradient><linearGradient id="Sfumatura_senza_nome_455-2" x1="33.77" y1="-2857.55" x2="33.77" y2="-2866.21" xlink:href="#Sfumatura_senza_nome_455"/></defs><g id="Livello_2" data-name="Livello 2"><g id="Livello_1-2" data-name="Livello 1"><path class="cls-1" d="M41.8,30.19v-8.4a15.2,15.2,0,1,1,30.4,0v8.4"/><path class="cls-2" d="M93.8,92.59c.4-.2.5-.4.9-.5"/><path class="cls-3" d="M11.3,100.59H118.6"/><path class="cls-3" d="M1.5,100.59H5.9"/><path class="cls-4" d="M101.4,14.29H16.2v85.4h85.2Z"/><path class="cls-5" d="M101.6,14.29H39.9v85.4h61.6V14.29Z"/><path class="cls-6" d="M28,14.29H16.2v85.4H28Z"/><path class="cls-7" d="M39.9,99.69H16.2v-.2l12-11.9Z"/><path class="cls-8" d="M54.8,33.29a3.1,3.1,0,1,0-3.1-3.1A3.12,3.12,0,0,0,54.8,33.29Z"/><path class="cls-8" d="M85.2,33.29a3.1,3.1,0,1,0-3.1-3.1A3.18,3.18,0,0,0,85.2,33.29Z"/><path class="cls-1" d="M54.8,30.19v-8.4a15.2,15.2,0,1,1,30.4,0v8.4"/><path class="cls-9" d="M94.89,3.05A13.65,13.65,0,0,1,102.31.89a13.4,13.4,0,1,1-13.45,13.4A13,13,0,0,1,94.89,3.05Z"/><path class="cls-10" d="M102.31,20.29c-2.7,0-5-2.43-5-6.07s2.3-5.93,5-5.93,5,2.29,5,5.93S105,20.29,102.31,20.29Zm0-2.84c1,0,1.89-.94,1.89-3.23S103.26,11,102.31,11s-1.89,1.08-1.89,3.24S101.37,17.45,102.31,17.45Z"/><path class="cls-11" d="M60.38,57.59A7.83,7.83,0,0,1,53,52.23a1.27,1.27,0,0,1,.82-1.65,1.29,1.29,0,0,1,1.65.82,5.35,5.35,0,0,0,5,3.58,5.14,5.14,0,0,0,4.94-3.58,1.31,1.31,0,0,1,2.48.83A7.67,7.67,0,0,1,60.38,57.59Z"/><path class="cls-11" d="M81.12,57.59a7.85,7.85,0,0,1-7.42-5.36,1.31,1.31,0,0,1,2.48-.83A5.34,5.34,0,0,0,81.12,55a5.16,5.16,0,0,0,4.95-3.58,1.28,1.28,0,0,1,1.65-.82,1.27,1.27,0,0,1,.82,1.65A7.65,7.65,0,0,1,81.12,57.59Z"/><path class="cls-11" d="M70.82,74.4a3.16,3.16,0,1,0-3.16-3.16A3.16,3.16,0,0,0,70.82,74.4Z"/><path class="cls-12" d="M13.26,4.65V0h18V4.65L19,19.45H31.44V24.1H12.63V19.45L24.89,4.65Z"/><path class="cls-13" d="M28.06,39.53v-3H39.69v3L31.87,49h8v3H27.64V49l7.82-9.51Z"/></g></g></svg>