<?xml version="1.0" encoding="UTF-8"?>
<svg width="199.37px" height="122.560464px" viewBox="0 0 199.37 122.560464" version="1.1" xmlns="http://www.w3.org/2000/svg" xmlns:xlink="http://www.w3.org/1999/xlink">
    <title>Logo</title>
    <g id="Logo" stroke="none" stroke-width="1" fill="none" fill-rule="evenodd">
        <path d="M179,73.9 L181.31,73.9 C183.99,73.9 185.52,75.28 185.52,78.01 C185.52,80.46 183.76,81.75 181.08,81.75 L179,81.75 L179,73.9 Z M166.88,67.9 L166.88,73.96 L169.47,73.96 L169.47,94.1 L166.88,94.1 L166.88,100.21 L181.82,100.21 L181.82,94.1 L179,94.1 L179,86.93 C183.11,86.93 183.62,87.93 183.62,92.16 C183.62,97.57 186.54,100.76 192.62,100.76 C197.76,100.76 199.37,97.2 199.37,93.36 L199.37,90.82 L196.28,90.82 L196.28,92.34 C196.28,93.27 195.91,93.82 195.21,93.82 C194.51,93.82 194.1,92.67 194.1,90.68 C193.92386,87.3208276 191.383294,84.5618992 188.05,84.11 C191.88,83.56 194.75,81.01 194.75,77.41 C194.75,72.14 192.67,67.88 181.94,67.88 L166.88,67.9 Z M136.69,67.9 L136.69,74.01 L139.6,74.01 L139.6,94.06 L136.69,94.06 L136.69,100.21 L164.57,100.21 L164.57,89.75 L156.57,89.75 L156.57,94.06 L149.18,94.06 L149.18,86.52 L158,86.52 L158,80.37 L149.22,80.37 L149.22,73.99 L156.61,73.99 L156.61,78.1 L164.61,78.1 L164.61,67.88 L136.69,67.9 Z M123.78,100.21 L133,100.21 L133,88.65 L134.85,88.65 L134.85,83.65 L119.53,83.65 L119.53,88.65 L122.35,88.65 L122.35,90.59 C121.66,91.79 120.55,92.85 117.91,92.85 C113.91,92.85 111.58,89.06 111.58,84.35 C111.58,79.64 114.17,75.65 117.91,75.65 C120.64,75.65 123.04,77.78 123.18,81.52 L131.46,81.52 L131.46,67.88 L124.57,67.88 L123.57,71.21 C122.83,70.47 121.26,67.33 114.57,67.33 C107.36,67.33 100.38,74.26 100.38,84.33 C100.38,94.4 106.81,100.6 114.9,100.6 C118.46,100.6 121.32,98.98 122.34,97.27 L123.78,100.21 Z M78.89,73.9 L81.2,73.9 C83.88,73.9 85.41,75.28 85.41,78.01 C85.41,80.46 83.65,81.75 80.97,81.75 L78.89,81.75 L78.89,73.9 Z M66.77,67.9 L66.77,73.96 L69.36,73.96 L69.36,94.1 L66.77,94.1 L66.77,100.21 L81.71,100.21 L81.71,94.1 L78.89,94.1 L78.89,86.93 C83,86.93 83.51,87.93 83.51,92.16 C83.51,97.57 86.42,100.76 92.51,100.76 C97.64,100.76 99.26,97.2 99.26,93.36 L99.26,90.82 L96.16,90.82 L96.16,92.34 C96.16,93.27 95.79,93.82 95.1,93.82 C94.41,93.82 94,92.67 94,90.68 C94,87.35 91.13,84.58 87.94,84.11 C91.78,83.56 94.65,81.01 94.65,77.41 C94.65,72.14 92.57,67.88 81.84,67.88 L66.77,67.9 Z M32.23,67.9 L32.23,73.9 L34.82,73.9 L34.82,85.28 C34.82,95.77 39.82,100.67 49.16,100.95 C57.85,100.95 62.43,96 62.43,85.04 L62.43,73.85 L64.92,73.85 L64.92,67.85 L51.24,67.85 L51.24,73.96 L53.73,73.96 L53.73,83.76 C53.73,91.71 51.88,92.82 49.06,92.82 C46.24,92.82 44.44,91.25 44.44,83.82 L44.44,73.82 L46.94,73.82 L46.94,67.82 L32.23,67.9 Z M13.23,94.21 L13.23,86.21 L16.79,86.21 C19.34,86.21 20.68,87.92 20.68,90.28 C20.7462866,91.316369 20.3809911,92.3340047 19.6707273,93.0916194 C18.9604636,93.849234 17.9684865,94.2793558 16.93,94.28 L13.23,94.21 Z M13.23,74.01 L16.14,74.01 C17.014484,73.9857829 17.8559755,74.3444829 18.4440599,74.9921444 C19.0321443,75.639806 19.3082296,76.5119015 19.2,77.38 C19.2,79.6 18.5,80.94 16.05,80.94 L13.18,80.94 L13.23,74.01 Z M0.93,100.21 L18.5,100.21 C27.42,100.21 31.08,97.34 31.08,90.82 C31.2247737,87.073148 28.6630083,83.7613921 25,82.96 C28.47,81.57 29.53,79.68 29.53,75.79 C29.53,70.79 25.88,67.88 18.21,67.88 L0.93,67.88 L0.93,73.88 L3.61,73.88 L3.61,94.19 L0.93,94.19 L0.93,100.21 Z" id="Shape" fill="#EFEDDA"></path>
        <polygon id="Path" fill="#EFEDDA" points="150.85 50.65 154.96 61.61 104.87 61.61 45.35 61.61 49.46 50.65 45.35 39.68 104.87 39.68 154.96 39.68"></polygon>
        <path d="M143,111.81 L147.55,111.81 L147.55,109.28 L140.86,109.28 L139.86,115.09 L142.02,116.09 C142.411009,115.612042 142.992567,115.330407 143.61,115.32 C144.232409,115.305678 144.81111,115.638765 145.111365,116.18415 C145.41162,116.729535 145.383573,117.39666 145.0386,117.914918 C144.693628,118.433176 144.08901,118.716514 143.47,118.65 C142.543735,118.579649 141.688611,118.126723 141.11,117.4 L139.24,119.28 C140.270422,120.535734 141.805652,121.268541 143.43,121.28 C145.88,121.28 148.43,119.84 148.43,117 C148.474736,115.936542 148.076058,114.902223 147.329124,114.143913 C146.582189,113.385604 145.554013,112.971341 144.49,113 C143.85776,112.973414 143.229769,113.114884 142.67,113.41 L143,111.81 Z M131.8,113.38 L133.49,112.58 L133.49,118.85 L131.8,118.85 L131.8,121.1 L138.56,121.1 L138.56,118.85 L137,118.85 L137,109.28 L134,109.28 C133.218032,110.274178 132.181301,111.037904 131,111.49 L131.8,113.38 Z M125.58,118.68 C124.91,118.68 124.08,117.32 124.08,115.14 C124.08,112.96 124.85,111.77 125.48,111.79 C126.31,111.79 126.95,113.24 126.95,115.25 C126.95,117.26 126.36,118.68 125.58,118.68 L125.58,118.68 Z M125.58,121.3 C128.64,121.3 130.35,119 130.35,115.3 C130.35,111.6 128.81,109.12 125.5,109.12 C122.69,109.12 120.73,111.6 120.73,115.19 C120.73,119.28 122.76,121.28 125.58,121.28 L125.58,121.3 Z M112.89,113.12 C113.378147,112.42581 114.130314,111.962938 114.97,111.84 C115.75,111.84 116.39,112.09 116.39,112.95 C116.39,113.95 114.6,114.71 113.39,115.78 C112.368819,116.546801 111.526112,117.525979 110.92,118.65 L110.92,121.1 L120.05,121.1 L120.05,117.5 L117.21,117.5 L117.21,118.85 L114.21,118.85 C114.92,117.955833 115.779344,117.191227 116.75,116.59 C118.54,115.42 119.45,114.75 119.45,112.8 C119.450377,111.765415 119.018734,110.777666 118.259246,110.075139 C117.499758,109.372613 116.481419,109.019129 115.45,109.1 C113.746044,109.107356 112.135074,109.87798 111.06,111.2 L112.89,113.12 Z M95.67,109.28 L95.67,111.51 L96.73,111.51 L96.73,118.84 L95.67,118.84 L95.67,121.09 L105.86,121.09 L105.86,117.28 L102.94,117.28 L102.94,118.85 L100.23,118.85 L100.23,116.1 L103.44,116.1 L103.44,113.85 L100.23,113.85 L100.23,111.52 L102.94,111.52 L102.94,113.02 L105.86,113.02 L105.86,109.28 L95.67,109.28 Z M93,116.82 C92.84,116.99 91.73,118.48 90.31,118.48 C88.7,118.48 87.84,116.98 87.84,115.3 C87.84,113.46 88.64,111.96 89.84,111.96 C91.04,111.96 91.58,112.96 91.63,114.09 L94.63,114.09 L94.63,109.28 L92,109.28 L91.61,110.22 C90.9784813,109.44114 90.0111095,109.013264 89.01,109.07 C86.79,109.07 83.87,111.41 83.87,115.29 C83.87,119.17 86.25,121.36 89.87,121.36 C91.839635,121.337289 93.7059576,120.47507 95,118.99 L93,116.82 Z M83.21,111.47 L83.21,109.28 L78.15,109.28 L78.15,111.46 L79.29,111.46 L79.29,115.46 L75.15,109.28 L70.3,109.28 L70.3,111.46 L71.3,111.46 L71.3,118.91 L70.3,118.91 L70.3,121.09 L75.49,121.09 L75.49,118.91 L74.17,118.91 L74.17,114.65 L78.48,121.09 L82.12,121.09 L82.12,111.46 L83.21,111.47 Z M63.83,109.28 L63.83,111.51 L64.9,111.51 L64.9,118.84 L63.83,118.84 L63.83,121.09 L69.44,121.09 L69.44,118.84 L68.44,118.84 L68.44,111.51 L69.44,111.51 L69.44,109.28 L63.83,109.28 Z M51.83,121.09 L54.83,121.09 L55.02,119.79 C55.9079701,120.805424 57.2014965,121.373403 58.55,121.34 C60.55,121.34 63.03,120.4 63.03,117.76 C63.03,113.76 56.33,114.19 56.33,112.46 C56.33,111.86 57.01,111.56 57.5,111.56 C58.0575649,111.515248 58.6083915,111.706035 59.0188263,112.086068 C59.4292612,112.4661 59.661793,113.000645 59.66,113.56 L62.72,113.56 L62.72,109.28 L59.82,109.28 L59.65,110.7 C58.8877531,109.510467 57.5271406,108.843652 56.12,108.97 C54.46,108.97 52.12,110.11 52.12,112.61 C52.12,116.92 58.61,116.36 58.61,117.68 C58.61,118.39 57.77,118.52 57.18,118.52 C56.59,118.52 55,118.28 55,116.84 L51.83,116.84 L51.83,121.09 Z" id="Shape" fill="#EFEDDA"></path>
        <path d="M14.81,118.9 L24.7,118.9 C25.0622613,118.905368 25.3546323,119.197739 25.36,119.56 C25.3545358,119.920597 25.0606381,120.210041 24.7,120.21 L14.81,120.21 C14.4510149,120.21 14.16,119.918985 14.16,119.56 C14.16,119.199362 14.4494033,118.905464 14.81,118.9 M13.24,114.05 L27.85,114.05 C28.2105967,114.055464 28.5,114.349362 28.5,114.71 L28.5,114.71 C28.5,115.070638 28.2105967,115.364536 27.85,115.37 L13.24,115.37 C12.8777387,115.364632 12.5853677,115.072261 12.58,114.71 L12.58,114.71 C12.5853677,114.347739 12.8777387,114.055368 13.24,114.05 L13.24,114.05 Z M13.24,116.48 L26.24,116.48 C26.5989851,116.48 26.89,116.771015 26.89,117.13 C26.89,117.490638 26.6005967,117.784536 26.24,117.79 L13.24,117.79 C12.8777387,117.784632 12.5853677,117.492261 12.58,117.13 C12.5854642,116.769403 12.8793619,116.479959 13.24,116.48 L13.24,116.48 Z M13.24,111.63 L26.24,111.63 C26.6005967,111.635464 26.89,111.929362 26.89,112.29 L26.89,112.29 C26.89,112.650638 26.6005967,112.944536 26.24,112.95 L13.24,112.95 C12.8777387,112.944632 12.5853677,112.652261 12.58,112.29 L12.58,112.29 C12.5853677,111.927739 12.8777387,111.635368 13.24,111.63 L13.24,111.63 Z M14.81,109.21 L24.7,109.21 C25.0606381,109.209959 25.3545358,109.499403 25.36,109.86 L25.36,109.86 C25.3545358,110.220597 25.0606381,110.510041 24.7,110.51 L14.81,110.51 C14.4510149,110.51 14.16,110.218985 14.16,109.86 L14.16,109.86 C14.16,109.687609 14.2284819,109.522279 14.3503806,109.400381 C14.4722792,109.278482 14.6376093,109.21 14.81,109.21 L14.81,109.21 Z M12.91,106.97 L26.8,106.97 C27.83647,106.957626 28.8023446,107.4938 29.34,108.38 L32.34,113.2 C32.4376161,113.347028 32.5181369,113.504715 32.58,113.67 L44.39,113.67 L44.39,115.86 L32.56,115.86 C32.4961999,116.0276 32.4157999,116.1884 32.32,116.34 L29.32,121.15 C28.7867548,122.04077 27.8180163,122.578534 26.78,122.56 L12.91,122.56 C11.2531458,122.56 9.91,121.216854 9.91,119.56 L9.91,109.93 C9.93188477,108.288788 11.2686418,106.96979 12.91,106.97 L12.91,106.97 Z" id="Shape" fill="#EFEDDA"></path>
        <path d="M185.5,118.9 L175.61,118.9 C175.247739,118.905368 174.955368,119.197739 174.95,119.56 C174.955464,119.920597 175.249362,120.210041 175.61,120.21 L185.5,120.21 C185.860638,120.210041 186.154536,119.920597 186.16,119.56 C186.154632,119.197739 185.862261,118.905368 185.5,118.9 M187.07,114.05 L172.47,114.05 C172.105492,114.05 171.81,114.345492 171.81,114.71 L171.81,114.71 C171.815368,115.072261 172.107739,115.364632 172.47,115.37 L187.07,115.37 C187.432261,115.364632 187.724632,115.072261 187.73,114.71 L187.73,114.71 C187.724632,114.347739 187.432261,114.055368 187.07,114.05 L187.07,114.05 Z M187.07,116.48 L174,116.48 C173.639362,116.479959 173.345464,116.769403 173.34,117.13 C173.345368,117.492261 173.637739,117.784632 174,117.79 L187,117.79 C187.362261,117.784632 187.654632,117.492261 187.66,117.13 C187.656812,116.794991 187.403136,116.515518 187.07,116.48 L187.07,116.48 Z M187.07,111.63 L174,111.63 C173.637739,111.635368 173.345368,111.927739 173.34,112.29 L173.34,112.29 C173.345368,112.652261 173.637739,112.944632 174,112.95 L187,112.95 C187.362261,112.944632 187.654632,112.652261 187.66,112.29 L187.66,112.29 C187.657379,111.952899 187.404701,111.670242 187.07,111.63 L187.07,111.63 Z M185.5,109.21 L175.61,109.21 C175.249362,109.209959 174.955464,109.499403 174.95,109.86 L174.95,109.86 C174.955464,110.220597 175.249362,110.510041 175.61,110.51 L185.5,110.51 C185.860638,110.510041 186.154536,110.220597 186.16,109.86 L186.16,109.86 C186.154536,109.499403 185.860638,109.209959 185.5,109.21 L185.5,109.21 Z M187.4,106.969996 L173.51,106.969996 C172.484196,106.968214 171.532157,107.503024 171,108.38 L168,113.2 C167.910133,113.351429 167.829972,113.508412 167.76,113.67 L155.92,113.67 L155.92,115.86 L167.75,115.86 C167.816667,116.02 167.896667,116.18 167.99,116.34 L170.99,121.15 C171.523245,122.04077 172.491984,122.578534 173.53,122.56 L187.4,122.56 C189.056854,122.56 190.4,121.216854 190.4,119.56 L190.4,109.93 C190.378115,108.288788 189.041358,106.969996 187.4,106.969996 L187.4,106.969996 Z" id="Shape" fill="#EFEDDA"></path>
        <path d="M16.45,31.97 C17.9577374,31.97 19.18,33.1922626 19.18,34.7 C19.18,36.2077374 17.9577374,37.43 16.45,37.43 C14.9422626,37.43 13.72,36.2077374 13.72,34.7 C13.72,33.1922626 14.9422626,31.97 16.45,31.97" id="Path" fill="#EFEDDA"></path>
        <path d="M179.08,31.97 C180.184182,31.97 181.179639,32.6351431 181.602191,33.6552742 C182.024743,34.6754053 181.791176,35.849627 181.010402,36.6304015 C180.229627,37.411176 179.055405,37.6447433 178.035274,37.2221911 C177.015143,36.799639 176.35,35.8041819 176.35,34.7 C176.35,33.1922626 177.572263,31.97 179.08,31.97" id="Path" fill="#EFEDDA"></path>
        <path d="M153.88,47.37 L198.46,47.37 L198.46,49.82 L153,49.82 L153.88,47.37 Z M0,47.37 L44.58,47.37 L45.5,49.82 L0,49.82 L0,47.37 Z M45.5,51.47 L0,51.47 L0,53.92 L44.58,53.92 L45.5,51.47 Z M198.5,51.47 L153,51.47 L153.92,53.92 L198.5,53.92 L198.5,51.47 Z" id="Shape" fill="#EFEDDA"></path>
        <text id="EMA-&amp;-PEPPE" fill="#5A5649" fill-rule="nonzero" font-family="Phosphate-Inline, Phosphate" font-size="12.03" font-weight="normal">
            <tspan x="66.81" y="55.43">EMA &amp; PEPPE</tspan>
        </text>
        <text id="M" fill="#EFEDDA" fill-rule="nonzero" transform="translate(32.150913, 25.805471) rotate(-27.750000) translate(-32.150913, -25.805471) " font-family="Phosphate-Inline, Phosphate" font-size="18.89" font-weight="normal">
            <tspan x="24.6509129" y="32.3054715">M</tspan>
        </text>
        <text id="C" fill="#EFEDDA" fill-rule="nonzero" transform="translate(46.618435, 19.647000) rotate(-19.060000) translate(-46.618435, -19.647000) " font-family="Phosphate-Inline, Phosphate" font-size="18.89" font-weight="normal">
            <tspan x="40.618435" y="26.147">C</tspan>
        </text>
        <text id="D" fill="#EFEDDA" fill-rule="nonzero" transform="translate(65.880501, 14.587583) rotate(-10.840000) translate(-65.880501, -14.587583) " font-family="Phosphate-Inline, Phosphate" font-size="18.89" font-weight="normal">
            <tspan x="59.8805014" y="21.0875825">D</tspan>
        </text>
        <text id="O" fill="#EFEDDA" fill-rule="nonzero" transform="translate(81.131055, 12.396837) rotate(-5.610000) translate(-81.131055, -12.396837) " font-family="Phosphate-Inline, Phosphate" font-size="18.89" font-weight="normal">
            <tspan x="74.1310546" y="18.8968365">O</tspan>
        </text>
        <text id="N" fill="#EFEDDA" fill-rule="nonzero" transform="translate(96.955000, 11.565000) rotate(-0.572939) translate(-96.955000, -11.565000) " font-family="Phosphate-Inline, Phosphate" font-size="18.89" font-weight="normal">
            <tspan x="90.454675" y="18.064425">N</tspan>
        </text>
        <text id="A" fill="#EFEDDA" fill-rule="nonzero" transform="translate(110.765624, 11.878415) rotate(3.500000) translate(-110.765624, -11.878415) " font-family="Phosphate-Inline, Phosphate" font-size="18.89" font-weight="normal">
            <tspan x="104.765624" y="18.378415">A</tspan>
        </text>
        <text id="R" fill="#EFEDDA" fill-rule="nonzero" transform="translate(124.829385, 13.299936) rotate(7.930000) translate(-124.829385, -13.299936) " font-family="Phosphate-Inline, Phosphate" font-size="18.89" font-weight="normal">
            <tspan x="118.829385" y="19.7999361">R</tspan>
        </text>
        <text id="U" fill="#EFEDDA" fill-rule="nonzero" transform="translate(138.000000, 15.680000) rotate(12.652557) translate(-138.000000, -15.680000) " font-family="Phosphate-Inline, Phosphate" font-size="18.89" font-weight="normal">
            <tspan x="131.973658" y="22.1295108">U</tspan>
        </text>
        <text id="D" fill="#EFEDDA" fill-rule="nonzero" transform="translate(151.546095, 19.553088) rotate(18.820000) translate(-151.546095, -19.553088) " font-family="Phosphate-Inline, Phosphate" font-size="18.89" font-weight="normal">
            <tspan x="145.546095" y="26.0530881">D</tspan>
        </text>
        <text id="O" fill="#EFEDDA" fill-rule="nonzero" transform="translate(165.994670, 25.645779) rotate(27.370000) translate(-165.994670, -25.645779) " font-family="Phosphate-Inline, Phosphate" font-size="18.89" font-weight="normal">
            <tspan x="158.99467" y="32.1457786">O</tspan>
        </text>
    </g>
</svg>