<svg xmlns="http://www.w3.org/2000/svg" viewBox="0 0 199.38 120.28"><defs><style>.cls-1,.cls-3{fill:#efedda;}.cls-1{fill-rule:evenodd;}.cls-2{font-size:12.03px;fill:#5a5649;}.cls-2,.cls-3{font-family:Phosphate-Inline, Phosphate;}.cls-3{font-size:18.89px;}</style></defs><g id="Livello_2" data-name="Livello 2"><g id="Object"><g id="Burger"><path class="cls-1" d="M179,71.62h2.31c2.68,0,4.21,1.38,4.21,4.11,0,2.45-1.76,3.74-4.44,3.74H179Zm-12.12-6v6.06h2.59V91.82h-2.59v6.11h14.94V91.82H179V84.65c4.11,0,4.62,1,4.62,5.23,0,5.41,2.92,8.6,9,8.6,5.14,0,6.75-3.56,6.75-7.4V88.54h-3.09v1.52c0,.93-.37,1.48-1.07,1.48s-1.11-1.15-1.11-3.14a7,7,0,0,0-6.05-6.57c3.83-.55,6.7-3.1,6.7-6.7,0-5.27-2.08-9.53-12.81-9.53Zm-30.19,0v6.11h2.91V91.78h-2.91v6.15h27.88V87.47h-8v4.31h-7.39V84.24H158V78.09h-8.78V71.71h7.39v4.11h8V65.6ZM123.78,97.93H133V86.37h1.85v-5H119.53v5h2.82v1.94c-.69,1.2-1.8,2.26-4.44,2.26-4,0-6.33-3.79-6.33-8.5s2.59-8.7,6.33-8.7c2.73,0,5.13,2.13,5.27,5.87h8.28V65.6h-6.89l-1,3.33c-.74-.74-2.31-3.88-9-3.88-7.21,0-14.19,6.93-14.19,17s6.43,16.27,14.52,16.27c3.56,0,6.42-1.62,7.44-3.33ZM78.89,71.62H81.2c2.68,0,4.21,1.38,4.21,4.11,0,2.45-1.76,3.74-4.44,3.74H78.89Zm-12.12-6v6.06h2.59V91.82H66.77v6.11H81.71V91.82H78.89V84.65c4.11,0,4.62,1,4.62,5.23,0,5.41,2.91,8.6,9,8.6,5.13,0,6.75-3.56,6.75-7.4V88.54h-3.1v1.52c0,.93-.37,1.48-1.06,1.48S94,90.39,94,88.4c0-3.33-2.87-6.1-6.06-6.57,3.84-.55,6.71-3.1,6.71-6.7,0-5.27-2.08-9.53-12.81-9.53Zm-34.54,0v6h2.59V83c0,10.49,5,15.39,14.34,15.67,8.69,0,13.27-4.95,13.27-15.91V71.57h2.49v-6H51.24v6.11h2.49v9.8c0,7.95-1.85,9.06-4.67,9.06s-4.62-1.57-4.62-9v-10h2.5v-6Zm-19,26.31v-8h3.56c2.55,0,3.89,1.71,3.89,4.07a3.76,3.76,0,0,1-3.75,4Zm0-20.2h2.91a3,3,0,0,1,3.06,3.37c0,2.22-.7,3.56-3.15,3.56H13.18ZM.93,97.93H18.5c8.92,0,12.58-2.87,12.58-9.39A7.74,7.74,0,0,0,25,80.68c3.47-1.39,4.53-3.28,4.53-7.17,0-5-3.65-7.91-11.32-7.91H.93v6H3.61V91.91H.93Z"/><polygon class="cls-1" points="150.85 48.37 154.96 59.33 104.87 59.33 45.35 59.33 49.46 48.37 45.35 37.4 104.87 37.4 154.96 37.4 150.85 48.37"/><path class="cls-1" d="M143,109.53h4.55V107h-6.69l-1,5.81,2.16,1a2.1,2.1,0,0,1,1.59-.77,1.67,1.67,0,1,1-.14,3.33,3.34,3.34,0,0,1-2.36-1.25L139.24,117a5.47,5.47,0,0,0,4.19,2c2.45,0,5-1.44,5-4.28a3.84,3.84,0,0,0-3.94-4,3.58,3.58,0,0,0-1.82.41Zm-11.2,1.57,1.69-.8v6.27H131.8v2.25h6.76v-2.25H137V107h-3a7,7,0,0,1-3,2.21Zm-6.22,5.3c-.67,0-1.5-1.36-1.5-3.54s.77-3.37,1.4-3.35c.83,0,1.47,1.45,1.47,3.46S126.36,116.4,125.58,116.4Zm0,2.62c3.06,0,4.77-2.3,4.77-6s-1.54-6.18-4.85-6.18c-2.81,0-4.77,2.48-4.77,6.07C120.73,117,122.76,119,125.58,119Zm-12.69-8.18a3.09,3.09,0,0,1,2.08-1.28c.78,0,1.42.25,1.42,1.11,0,1-1.79,1.76-3,2.83a8.83,8.83,0,0,0-2.47,2.87v2.45h9.13v-3.6h-2.84v1.35h-3a9.9,9.9,0,0,1,2.54-2.26c1.79-1.17,2.7-1.84,2.7-3.79a3.71,3.71,0,0,0-4-3.7,5.69,5.69,0,0,0-4.39,2.1ZM95.67,107v2.23h1.06v7.33H95.67v2.25h10.19V115h-2.92v1.57h-2.71v-2.75h3.21v-2.25h-3.21v-2.33h2.71v1.5h2.92V107ZM93,114.54c-.16.17-1.27,1.66-2.69,1.66-1.61,0-2.47-1.5-2.47-3.18,0-1.84.8-3.34,2-3.34s1.74,1,1.79,2.13h3V107H92l-.39.94a3.12,3.12,0,0,0-2.6-1.15c-2.22,0-5.14,2.34-5.14,6.22s2.38,6.07,6,6.07A6.91,6.91,0,0,0,95,116.71Zm-9.79-5.35V107H78.15v2.18h1.14v4L75.15,107H70.3v2.18h1v7.45h-1v2.18h5.19v-2.18H74.17v-4.26l4.31,6.44h3.64v-9.63ZM63.83,107v2.23H64.9v7.33H63.83v2.25h5.61v-2.25h-1v-7.33h1V107Zm-12,11.81h3l.19-1.3a4.54,4.54,0,0,0,3.53,1.55c2,0,4.48-.94,4.48-3.58,0-4-6.7-3.57-6.7-5.3,0-.6.68-.9,1.17-.9a2,2,0,0,1,2.16,2h3.06V107h-2.9l-.17,1.42a3.79,3.79,0,0,0-3.53-1.73c-1.66,0-4,1.14-4,3.64,0,4.31,6.49,3.75,6.49,5.07,0,.71-.84.84-1.43.84S55,116,55,114.56H51.83Z"/><path class="cls-1" d="M14.81,116.62H24.7a.67.67,0,0,1,.66.66.66.66,0,0,1-.66.65H14.81a.65.65,0,0,1-.65-.65.66.66,0,0,1,.65-.66m-1.57-4.85H27.85a.66.66,0,0,1,.65.66h0a.66.66,0,0,1-.65.66H13.24a.67.67,0,0,1-.66-.66h0A.67.67,0,0,1,13.24,111.77Zm0,2.43h13a.65.65,0,0,1,.65.65.66.66,0,0,1-.65.66h-13a.67.67,0,0,1-.66-.66A.66.66,0,0,1,13.24,114.2Zm0-4.85h13a.66.66,0,0,1,.65.66h0a.66.66,0,0,1-.65.66h-13a.67.67,0,0,1-.66-.66h0A.67.67,0,0,1,13.24,109.35Zm1.57-2.42H24.7a.66.66,0,0,1,.66.65h0a.66.66,0,0,1-.66.65H14.81a.65.65,0,0,1-.65-.65h0A.65.65,0,0,1,14.81,106.93Zm-1.9-2.24H26.8a2.93,2.93,0,0,1,2.54,1.41l3,4.82a2.32,2.32,0,0,1,.24.47H44.39v2.19H32.56a2.69,2.69,0,0,1-.24.48l-3,4.81a2.9,2.9,0,0,1-2.54,1.41H12.91a3,3,0,0,1-3-3v-9.63A3,3,0,0,1,12.91,104.69Z"/><path class="cls-1" d="M185.5,116.62h-9.89a.67.67,0,0,0-.66.66.66.66,0,0,0,.66.65h9.89a.66.66,0,0,0,.66-.65.67.67,0,0,0-.66-.66m1.57-4.85h-14.6a.66.66,0,0,0-.66.66h0a.67.67,0,0,0,.66.66h14.6a.67.67,0,0,0,.66-.66h0A.67.67,0,0,0,187.07,111.77Zm0,2.43H174a.66.66,0,0,0-.66.65.67.67,0,0,0,.66.66h13a.67.67,0,0,0,.66-.66A.66.66,0,0,0,187.07,114.2Zm0-4.85H174a.67.67,0,0,0-.66.66h0a.67.67,0,0,0,.66.66h13a.67.67,0,0,0,.66-.66h0A.67.67,0,0,0,187.07,109.35Zm-1.57-2.42h-9.89a.66.66,0,0,0-.66.65h0a.66.66,0,0,0,.66.65h9.89a.66.66,0,0,0,.66-.65h0A.66.66,0,0,0,185.5,106.93Zm1.9-2.24H173.51A2.93,2.93,0,0,0,171,106.1l-3,4.82a4.16,4.16,0,0,0-.24.47H155.92v2.19h11.83q.1.24.24.48l3,4.81a2.9,2.9,0,0,0,2.54,1.41H187.4a3,3,0,0,0,3-3v-9.63A3,3,0,0,0,187.4,104.69Z"/><path class="cls-1" d="M16.45,29.69a2.73,2.73,0,1,1-2.73,2.73,2.73,2.73,0,0,1,2.73-2.73"/><path class="cls-1" d="M179.08,29.69a2.73,2.73,0,1,1-2.73,2.73,2.73,2.73,0,0,1,2.73-2.73"/><path class="cls-1" d="M153.88,45.09h44.58v2.45H153ZM0,45.09H44.58l.92,2.45H0Zm45.5,4.1H0v2.45H44.58Zm153,0H153l.92,2.45h44.58Z"/><text class="cls-2" transform="translate(66.81 53.15)">EMA &amp; PEPPE</text><text class="cls-3" transform="translate(28.54 32.77) rotate(-27.75)">M</text><text class="cls-3" transform="translate(43.07 25.47) rotate(-19.06)">C</text><text class="cls-3" transform="matrix(0.97, -0.25, 0.25, 0.97, 55.81, 21.31)"> </text><text class="cls-3" transform="translate(61.21 19.82) rotate(-10.84)">D</text><text class="cls-3" transform="translate(74.8 17.27) rotate(-5.61)">O</text><text class="cls-3" transform="matrix(1, -0.01, 0.01, 1, 90.52, 15.85)">N</text><text class="cls-3" transform="translate(104.38 15.72) rotate(3.5)">A</text><text class="cls-3" transform="translate(117.99 16.63) rotate(7.93)">R</text><text class="cls-3" transform="matrix(0.98, 0.22, -0.22, 0.98, 130.69, 18.45)">U</text><text class="cls-3" transform="translate(143.77 21.49) rotate(18.82)">D</text><text class="cls-3" transform="translate(156.79 25.92) rotate(27.37)">O</text></g></g></g></svg>