<?xml version="1.0" encoding="UTF-8"?>
<svg width="157px" height="189px" viewBox="0 0 157 189" version="1.1" xmlns="http://www.w3.org/2000/svg" xmlns:xlink="http://www.w3.org/1999/xlink">
    <title>Empty Cart State</title>
    <g id="Page-1" stroke="none" stroke-width="1" fill="none" fill-rule="evenodd">
        <g id="Shopping-Cart-/-Empty" transform="translate(-130.000000, -87.000000)" fill-rule="nonzero">
            <g id="Empty-Cart-State" transform="translate(130.000000, 87.000000)">
                <path d="M61.7048308,130.77886 L64.1038249,133.309058 L64.1865826,133.17327 L65.8983691,134.207575 L64.458621,136.590374 L60.2534393,132.154891 L61.7048308,130.77886 Z M64.1038249,133.309058 L63.4255138,134.432847 L65.0071028,134.261984 L64.1038249,133.309058 Z M69.0514543,125.121852 L70.7632408,126.156157 L67.519993,131.523769 L65.8082065,130.489464 L69.0514543,125.121852 Z M110.44298,128.521729 L110.970324,130.450954 C109.582485,130.830615 108.121467,131.033333 106.613065,131.033333 C105.960244,131.033333 105.316298,130.995363 104.683318,130.921511 L104.683318,130.921511 L104.914971,128.934972 C105.481487,129.001074 106.048574,129.03332 106.66501,129.033242 C107.956249,129.028719 109.222884,128.855539 110.44298,128.521729 L110.44298,128.521729 Z M97.3801922,125.706016 C98.8055113,126.888647 100.444198,127.78902 102.211359,128.352439 L102.211359,128.352439 L101.604301,130.258084 C99.5702813,129.609649 97.7080207,128.576847 96.1030428,127.245136 L96.1030428,127.245136 Z M55.2326425,123.952214 L59.5474347,128.503311 L58.0960432,129.879343 L53.781251,125.328246 L55.2326425,123.952214 Z M117.393301,124.21616 L118.88303,125.55059 C117.483585,127.112854 115.78972,128.406264 113.888592,129.343728 L113.888592,129.343728 L113.004027,127.549976 C114.665615,126.730638 116.156627,125.596708 117.393301,124.21616 L117.393301,124.21616 Z M92.7956738,118.865133 C93.3447374,120.636195 94.2322411,122.281182 95.4042133,123.71529 L95.4042133,123.71529 L93.8558079,124.981165 C92.5362901,123.366587 91.5176514,121.496851 90.8853727,119.457374 L90.8853727,119.457374 Z M73.9163259,117.070434 L75.6281125,118.104739 L72.3848647,123.472351 L70.6730782,122.438046 L73.9163259,117.070434 Z M48.7604541,117.125569 L53.0752464,121.676666 L51.6238549,123.052698 L47.3090627,118.501601 L48.7604541,117.125569 Z M120.90577,116.805106 L122.882366,117.110171 C122.55398,119.238702 121.817259,121.232597 120.754672,123.00945 L120.754672,123.00945 L119.038247,121.98286 C119.98581,120.398322 120.621824,118.645677 120.90577,116.805106 L120.90577,116.805106 Z M90.7535233,110.157149 L92.6800258,110.694353 C92.3291817,111.952209 92.1507538,113.256873 92.1507811,114.611763 C92.1518044,115.144261 92.1815762,115.672801 92.2396267,116.195958 L92.2396267,116.195958 L90.2518439,116.416684 C90.1850481,115.814765 90.1507538,115.203051 90.1507538,114.583333 C90.1507538,113.049885 90.3607316,111.565442 90.7535233,110.157149 L90.7535233,110.157149 Z M42.2882658,110.298924 L46.603058,114.850021 L45.1516666,116.226052 L40.8368744,111.674956 L42.2882658,110.298924 Z M78.7811976,109.019016 L80.4929841,110.053321 L77.2497364,115.420933 L75.5379498,114.386628 L78.7811976,109.019016 Z M121.62224,107.815966 C122.469763,109.689913 122.976139,111.750921 123.062234,113.919915 L123.062234,113.919915 L121.063785,113.998686 C120.989392,112.126267 120.557675,110.315451 119.799837,108.639887 L119.799837,108.639887 Z M37.2217327,103.903322 L37.5228249,105.273058 L40.1308697,108.023376 L38.6794782,109.399407 L34.1174841,104.58757 L37.2217327,103.903322 Z M95.7450855,102.227241 L97.0657739,103.729167 C95.6732486,104.953041 94.5253887,106.433341 93.6909302,108.086556 L93.6909302,108.086556 L91.9056627,107.184991 C92.8601114,105.294169 94.1689945,103.612532 95.7450855,102.227241 L95.7450855,102.227241 Z M83.6460692,100.967599 L85.3578558,102.001904 L82.114608,107.369516 L80.4028215,106.335211 L83.6460692,100.967599 Z M115.544843,100.762706 C117.316271,101.908159 118.853486,103.384423 120.068916,105.103988 L120.068916,105.103988 L118.435903,106.25866 C117.366532,104.74566 116.014295,103.447844 114.458161,102.441729 L114.458161,102.441729 Z M36.7859972,104.495318 L36.2755575,106.159891 L37.6522448,105.856437 L37.5228249,105.273058 L36.7859972,104.495318 Z M46.4082446,101.878401 L46.8387566,103.831516 L40.7144154,105.181463 L40.2839034,103.228348 L46.4082446,101.878401 Z M55.5947565,99.8534799 L56.0252685,101.806595 L49.9009273,103.156542 L49.4704152,101.203427 L55.5947565,99.8534799 Z M104.13824,98.3179871 L104.43595,100.295705 C102.5934,100.573326 100.838005,101.20263 99.2497417,102.143449 L99.2497417,102.143449 L98.2302782,100.422782 C100.010953,99.3679608 102.007691,98.6389654 104.13824,98.3179871 L104.13824,98.3179871 Z M106.613065,98.1333333 C108.790533,98.1333333 110.869262,98.5557719 112.77165,99.3231069 L112.77165,99.3231069 L112.023,101.177702 C110.319998,100.490866 108.493058,100.133333 106.613065,100.133333 L106.613065,100.133333 Z M64.7812683,97.828559 L65.2117804,99.7816743 L59.0874391,101.131622 L58.6569271,99.1785062 L64.7812683,97.828559 Z M89.1515781,92.4567757 L89.3668249,93.4330578 L90.2227274,93.9504858 L86.9794797,99.3180977 L85.2676931,98.2837927 L87.3048249,94.9110578 L86.6469747,95.0568587 L86.2164627,93.1037434 L89.1515781,92.4567757 Z M73.9677802,95.803638 L74.3982923,97.7567533 L68.273951,99.1067006 L67.843439,97.1535853 L73.9677802,95.803638 Z M83.1542921,93.7787171 L83.5848041,95.7318324 L77.4604629,97.0817797 L77.0299508,95.1286644 L83.1542921,93.7787171 Z M126.703685,92.8056973 L132.718996,94.5793796 L132.153351,96.4977239 L126.13804,94.7240417 L126.703685,92.8056973 Z M88.5109409,92.9161808 L87.3048249,94.9110578 L89.5820902,94.409891 L89.3668249,93.4330578 L88.5109409,92.9161808 Z M134.764643,87.3149822 L136.680177,87.8900725 L134.876879,93.8965714 L132.961345,93.321481 L134.764643,87.3149822 Z M117.680719,90.1451738 L123.69603,91.9188561 L123.130384,93.8372005 L117.115073,92.0635182 L117.680719,90.1451738 Z M39.1664238,86.9260893 L39.9668249,90.6880578 L40.4002156,90.6005064 L40.7998485,92.560173 L38.4243745,93.0446011 L37.2102754,87.3426026 L39.1664238,86.9260893 Z M49.6175421,88.7208261 L50.017175,90.6804928 L43.8722907,91.933613 L43.4726578,89.9739463 L49.6175421,88.7208261 Z M39.9668249,90.6880578 L38.9961635,90.8868333 L40.1740541,91.65841 L39.9668249,90.6880578 Z M108.657753,87.4846504 L114.673063,89.2583327 L114.107418,91.1766771 L108.092107,89.4029948 L108.657753,87.4846504 Z M58.8348686,86.8411459 L59.2345015,88.8008126 L53.0896171,90.0539327 L52.6899843,88.094266 L58.8348686,86.8411459 Z M99.6347864,84.824127 L105.650097,86.5978093 L105.084452,88.5161536 L99.0691409,86.7424713 L99.6347864,84.824127 Z M68.052195,84.9614656 L68.4518279,86.9211323 L62.3069436,88.1742525 L61.9073107,86.2145858 L68.052195,84.9614656 Z M77.2695215,83.0817854 L77.6691544,85.0414521 L71.5242701,86.2945723 L71.1246372,84.3349056 L77.2695215,83.0817854 Z M90.6118201,82.1636035 L96.6271309,83.9372858 L96.0614855,85.8556302 L90.0461746,84.0819479 L90.6118201,82.1636035 Z M137.469591,78.3052338 L139.385125,78.8803242 L137.581826,84.8868231 L135.666292,84.3117327 L137.469591,78.3052338 Z M37.2073463,77.725311 L38.513398,83.8591632 L36.5572495,84.2756765 L35.2511978,78.1418243 L37.2073463,77.725311 Z M85.7309391,77.2606496 L87.6464733,77.83574 L86.6938249,81.0080578 L87.6041647,81.2767624 L87.0385192,83.1951068 L84.2005037,82.3582859 L85.7309391,77.2606496 Z M85.7300589,80.7241611 L86.4050033,81.9708785 L86.6938249,81.0080578 L85.7300589,80.7241611 Z M76.8463319,74.745229 L78.0266517,80.9045114 L76.0623933,81.2809275 L74.8820735,75.1216451 L76.8463319,74.745229 Z M137.900167,70.5267783 L141.568341,71.6083808 L140.286774,75.8770747 L138.37124,75.3019844 L139.074825,72.9580578 L137.334521,72.4451227 L137.900167,70.5267783 Z M35.2482688,68.5245328 L36.5543204,74.6583849 L34.598172,75.0748982 L33.2921203,68.9410461 L35.2482688,68.5245328 Z M88.4358865,68.2509013 L90.3514207,68.8259917 L88.5481224,74.8324905 L86.6325883,74.2574002 L88.4358865,68.2509013 Z M139.363841,71.9957882 L139.074825,72.9580578 L140.038785,73.2425055 L139.363841,71.9957882 Z M75.0758523,65.5063056 L76.256172,71.6655879 L74.2919137,72.042004 L73.1115939,65.8827217 L75.0758523,65.5063056 Z M128.8772,67.8662549 L134.892511,69.6399372 L134.326866,71.5582816 L128.311555,69.7845993 L128.8772,67.8662549 Z M119.854234,65.2057315 L125.869545,66.9794137 L125.303899,68.8977581 L119.288589,67.1240758 L119.854234,65.2057315 Z M110.831268,62.545208 L116.846579,64.3188903 L116.280933,66.2372347 L110.265622,64.4635524 L110.831268,62.545208 Z M33.2891912,59.3237545 L34.5952429,65.4576067 L32.6390945,65.87412 L31.3330428,59.7402678 L33.2891912,59.3237545 Z M91.140834,59.241153 L93.0563681,59.8162434 L91.2530698,65.8227422 L89.3375357,65.2476519 L91.140834,59.241153 Z M101.808302,59.8846846 L107.823612,61.6583669 L107.257967,63.5767113 L101.242656,61.803029 L101.808302,59.8846846 Z M73.3053726,56.2673821 L74.4856924,62.4266644 L72.521434,62.8030805 L71.3411143,56.6437982 L73.3053726,56.2673821 Z M92.7853353,57.2241611 L98.8006462,58.9978434 L98.2350007,60.9161878 L92.2196898,59.1425055 L92.7853353,57.2241611 Z M35.8918045,53.1238996 L36.2837547,55.0851174 L32.5458249,55.8320578 L32.6361654,56.2568284 L30.680017,56.6733417 L30.1678249,54.2678394 L35.8918045,53.1238996 Z M32.3348581,54.8417434 L31.552759,56.0306089 L32.5458249,55.8320578 L32.3348581,54.8417434 Z M45.1164263,51.280355 L45.5083765,53.2415727 L39.3586286,54.4706025 L38.9666784,52.5093848 L45.1164263,51.280355 Z M71.534893,47.0284586 L72.7152128,53.1877409 L70.7509544,53.564157 L69.7598249,48.3940578 L70.7487389,48.1972755 L70.5518249,47.2160578 L71.534893,47.0284586 Z M54.3410482,49.4368104 L54.7329984,51.3980281 L48.5832505,52.6270579 L48.1913003,50.6658401 L54.3410482,49.4368104 Z M63.56567,47.5932658 L63.9576202,49.5544835 L57.8078723,50.7835133 L57.4159221,48.8222955 L63.56567,47.5932658 Z M70.3567887,46.2360578 L70.5518249,47.2160578 L69.5706346,47.4048747 L69.7598249,48.3940578 L67.0324942,48.9399686 L66.640544,46.9787509 L70.3567887,46.2360578 Z" id="Combined-Shape" fill="#CCC5B9"></path>
                <path d="M7.05527638,43.8666667 C13.3116134,43.8666667 17.1097424,47.3700099 18.2234979,54.0546531 L21.961,71.2826667 L149.491204,71.2833333 L130.119798,138.226009 L38.521,147.613667 L42.4473909,165.712174 C43.1712995,165.572918 43.9188365,165.5 44.6834171,165.5 C51.1776197,165.5 56.4422111,170.760654 56.4422111,177.25 C56.4422111,183.739346 51.1776197,189 44.6834171,189 C38.1892145,189 32.9246231,183.739346 32.9246231,177.25 C32.9246231,172.225796 36.0803353,167.938097 40.5191791,166.258082 L16.2598572,54.4311854 C15.3108752,48.7415515 12.4109014,45.9740718 7.35516089,45.8697344 L7.05527638,45.8666667 L0,45.8666667 L0,43.8666667 L7.05527638,43.8666667 Z M121.507538,165.5 C128.00174,165.5 133.266332,170.760654 133.266332,177.25 C133.266332,183.739346 128.00174,189 121.507538,189 C115.013335,189 109.748744,183.739346 109.748744,177.25 C109.748744,170.760654 115.013335,165.5 121.507538,165.5 Z M44.6834171,167.5 C39.2934492,167.5 34.9246231,171.865559 34.9246231,177.25 C34.9246231,182.634441 39.2934492,187 44.6834171,187 C50.073385,187 54.4422111,182.634441 54.4422111,177.25 C54.4422111,171.865559 50.073385,167.5 44.6834171,167.5 Z M121.507538,167.5 C116.11757,167.5 111.748744,171.865559 111.748744,177.25 C111.748744,182.634441 116.11757,187 121.507538,187 C126.897506,187 131.266332,182.634441 131.266332,177.25 C131.266332,171.865559 126.897506,167.5 121.507538,167.5 Z M109.748744,176.25 L109.748744,178.25 L56.4422111,178.25 L56.4422111,176.25 L109.748744,176.25 Z M146.83,73.2826667 L22.395,73.2826667 L38.094,145.646667 L128.574,136.373667 L146.83,73.2826667 Z" id="Combined-Shape" fill="#FFFCF2"></path>
                <path d="M137.969849,-1.42108547e-14 C141.893185,-1.42108547e-14 145.119699,2.90907783 145.237854,8.51323972 L145.241206,8.83333333 L145.241024,23.2387124 C145.650379,23.0429552 146.108861,22.9333333 146.592965,22.9333333 L146.739704,22.937 L146.942127,22.7287339 C148.289024,21.2960226 149.432902,19.4146201 150.368102,17.0783697 C150.45898,16.8513442 150.5457,16.6306047 150.628268,16.4162252 L150.863516,15.7922405 L151.073876,15.2068586 L151.259377,14.6605225 C151.288224,14.572745 151.316037,14.4866127 151.342815,14.4021351 L151.491084,13.9151984 C151.536375,13.7595538 151.577534,13.6106014 151.614568,13.4684151 L151.713296,13.0622282 C151.799657,12.6764872 151.848928,12.3523052 151.861243,12.091676 L151.864322,11.9666667 L153.864322,11.9666667 C153.864322,12.7373838 153.642134,13.7947181 153.199446,15.1639954 L152.996227,15.7700009 C152.960108,15.8742095 152.922866,15.9800281 152.884501,16.087466 L152.640837,16.7515978 C152.597982,16.8655495 152.554005,16.981139 152.508906,17.0983753 L152.224863,17.8216303 C151.271936,20.2021661 150.1022,22.182107 148.711102,23.7565002 C148.772208,23.8121765 148.831555,23.8710075 148.888487,23.9321146 L149.268484,23.5559844 L150.241014,22.6138204 L150.857241,22.0288643 L151.447859,21.4783771 L152.01295,20.962313 L152.552594,20.4806258 C152.640419,20.4032069 152.727187,20.3272183 152.812899,20.2526593 L153.314524,19.8224515 L153.790905,19.4265058 L154.24212,19.0647763 L154.668252,18.737217 C154.875061,18.5819722 155.072493,18.4395239 155.260594,18.3098465 L155.445587,18.1844249 L156.554413,19.8489084 L156.207994,20.0881341 C156.14803,20.1308973 156.086955,20.1751059 156.024769,20.2207592 L155.638339,20.5120052 C155.571718,20.5634327 155.503989,20.6163028 155.435155,20.6706146 L155.008897,21.0137777 L154.556187,21.3914945 L154.077107,21.8037193 L153.571736,22.250406 L153.040155,22.7315087 L152.482445,23.2469813 L151.898687,23.796778 L151.288961,24.3808528 L150.325859,25.3211357 L149.725206,25.9186549 C149.727489,25.9677059 149.728643,26.0170516 149.728643,26.0666667 C149.728643,27.7971589 148.324752,29.2 146.592965,29.2 C146.186286,29.2 145.797689,29.1226389 145.441109,28.9818403 C145.322065,29.6152576 145.016629,30.3841736 144.551989,31.2394504 L144.32029,31.65051 L144.065434,32.0733312 C143.843575,32.4302675 143.598235,32.7982727 143.33102,33.1743899 L142.999965,33.629435 L142.648528,34.0911321 C142.58829,34.1685729 142.52723,34.2462435 142.465358,34.3241203 L142.084503,34.7936664 C141.954377,34.9508804 141.82111,35.1087299 141.684807,35.2670257 L141.266887,35.7430629 L141.051286,35.9817308 L141.051286,35.9817308 L140.607187,36.4596557 L140.146406,36.9374197 L139.909953,37.1758865 C139.671517,37.4141438 139.432382,37.6464968 139.193186,37.8725989 L138.714904,38.3163658 L138.237596,38.742847 C138.078783,38.882058 137.920321,39.0182853 137.762401,39.1514262 L137.290453,39.5414871 C137.212129,39.6049197 137.133988,39.6675551 137.056053,39.7293804 L136.591108,40.0905079 C136.514093,40.1490413 136.437331,40.2067389 136.360847,40.2635878 L135.905462,40.594395 L135.457869,40.9042181 L135.019207,41.1924407 C134.946903,41.2386436 134.87502,41.2839207 134.803579,41.3282593 L134.380441,41.5829256 C132.432379,42.7178509 130.868819,43.0968223 130.20944,42.4379386 C129.620711,41.8496479 129.859973,40.5410882 130.726423,38.8818809 L130.946311,38.477128 L131.189665,38.0600456 C131.348678,37.7962319 131.521031,37.525883 131.706051,37.2502396 L119.155779,37.25 C112.97679,37.25 110.066467,32.5969657 112.774048,27.185852 C114.408553,23.9192867 117.994555,21.7383419 123.451628,20.581788 C122.699127,16.4727703 123.606676,12.364776 126.147155,8.30304924 C129.616,2.75704739 134.214518,-1.42108547e-14 137.969849,-1.42108547e-14 Z M143.1956,29.4612175 L143.03809,29.5305395 C142.899551,29.5931529 142.75396,29.6634841 142.602169,29.7414524 L142.369942,29.8641228 C140.84594,30.6908192 139.017688,32.088486 137.243191,33.8107218 L136.889114,34.1594206 C135.005707,36.0414237 133.473179,38.0116367 132.590803,39.6358515 C132.462377,39.8722484 132.351054,40.0956638 132.257107,40.3032126 L132.188068,40.4588492 L132.347294,40.3900275 C132.485832,40.3274141 132.631424,40.2570829 132.783214,40.1791145 L133.015442,40.0564442 C134.641044,39.1746347 136.612815,37.6431878 138.49627,35.7611464 C140.379676,33.8791433 141.912205,31.9089303 142.794581,30.2847155 C142.923007,30.0483186 143.034329,29.8249032 143.128277,29.6173544 L143.1956,29.4612175 Z M124.412262,22.427 L124.383064,22.4331903 C119.315649,23.421227 116.108591,25.249281 114.680673,27.8555185 L114.562635,28.0808146 C112.558929,32.0852305 114.391222,35.141162 118.911079,35.2471552 L119.155779,35.25 L133.199704,35.249 C133.236014,35.2054679 133.268349,35.1662041 133.300881,35.1269006 L133.700577,34.6535412 C133.83688,34.4952454 133.976221,34.3365033 134.118497,34.1775041 L134.554023,33.6999246 L135.00654,33.2219382 L135.475431,32.7446804 L135.714076,32.5084041 L136.192197,32.047968 C136.271929,31.9726007 136.351668,31.8979279 136.43139,31.8239624 L136.909327,31.3887614 L137.001704,31.307 L124.412262,22.427 Z M143.241206,26.0666667 L143.241206,8.83333333 C143.241206,4.1621613 140.897112,2 137.969849,2 C134.93121,2 130.958874,4.38161928 127.842795,9.36361742 C125.448538,13.1915633 124.685739,16.9686603 125.52414,20.7462026 L125.528704,20.767 L138.546244,29.9494956 L138.430704,30.112 L138.562494,30.0081539 C138.639992,29.9479617 138.717261,29.8885925 138.794276,29.8300591 L139.253132,29.4889911 L139.704763,29.1685989 C139.928583,29.0136745 140.149268,28.8667347 140.366177,28.7281262 L140.794774,28.4621204 C140.865305,28.4196717 140.935369,28.3781745 141.004942,28.3376414 L141.41631,28.1061166 L141.81477,27.8983496 C142.511871,27.5500335 143.142229,27.3175593 143.677008,27.2165705 C143.534705,26.8613477 143.457286,26.4730415 143.457286,26.0666667 L143.241206,26.0666667 Z M146.592965,24.9333333 C145.965412,24.9333333 145.457286,25.441079 145.457286,26.0666667 C145.457286,26.6922543 145.965412,27.2 146.592965,27.2 C147.220517,27.2 147.728643,26.6922543 147.728643,26.0666667 C147.728643,25.441079 147.220517,24.9333333 146.592965,24.9333333 Z" id="Combined-Shape" fill="#EB5E28"></path>
            </g>
        </g>
    </g>
</svg>