<?xml version="1.0" encoding="UTF-8"?>
<svg width="170px" height="48px" viewBox="0 0 170 48" version="1.1" xmlns="http://www.w3.org/2000/svg" xmlns:xlink="http://www.w3.org/1999/xlink">
    <title>Logo / Icon + Title</title>
    <g id="Logo-/-Icon-+-Title" stroke="none" stroke-width="1" fill="none" fill-rule="evenodd">
        <g id="Mac-Donarudo" transform="translate(64.700000, 5.340000)" fill="#FFFFFF" fill-opacity="0.87" fill-rule="nonzero">
            <path d="M0,0.32 L3.52,0.32 L7,5.44 L10.46,0.32 L13.98,0.32 L13.98,13.66 L9.72,13.66 L9.72,8.86 L7,12.86 L4.26,8.86 L4.26,13.66 L0,13.66 L0,0.32 Z M2.52,12.06 L2.52,2.88 L7,9.4 L11.46,2.88 L11.46,12.06 L11.98,12.06 L11.98,1.92 L11.46,1.92 L7,8.5 L2.52,1.92 L2,1.92 L2,12.06 L2.52,12.06 Z" id="Shape"></path>
            <path d="M19.49,0.32 L22.69,0.32 L27.75,13.66 L23.55,13.66 L23.11,12.46 L19.07,12.46 L18.63,13.66 L14.43,13.66 L19.49,0.32 Z M21.99,9.52 L21.09,7.18 L20.19,9.52 L21.99,9.52 Z M17.41,12.06 L17.79,11.06 L24.39,11.06 L24.77,12.06 L25.33,12.06 L21.47,1.92 L20.71,1.92 L16.85,12.06 L17.41,12.06 Z M21.09,2.4 L24.21,10.58 L17.97,10.58 L21.09,2.4 Z" id="Shape"></path>
            <path d="M30.42,7 C30.42,6.36 30.53,5.76 30.75,5.2 C30.97,4.64 31.28,4.15333333 31.68,3.74 C32.08,3.32666667 32.5666667,3 33.14,2.76 C33.7133333,2.52 34.3533333,2.4 35.06,2.4 C35.4066667,2.4 35.7166667,2.42333333 35.99,2.47 C36.2633333,2.51666667 36.4933333,2.57333333 36.68,2.64 C36.9066667,2.70666667 37.1,2.78666667 37.26,2.88 L37.54,2.4 C37.3266667,2.30666667 37.1,2.22 36.86,2.14 C36.6333333,2.07333333 36.3733333,2.01333333 36.08,1.96 C35.7866667,1.90666667 35.4466667,1.88 35.06,1.88 C34.38,1.88 33.73,2 33.11,2.24 C32.49,2.48 31.9433333,2.82333333 31.47,3.27 C30.9966667,3.71666667 30.6166667,4.25666667 30.33,4.89 C30.0433333,5.52333333 29.9,6.22666667 29.9,7 C29.9,7.78666667 30.0366667,8.49333333 30.31,9.12 C30.5833333,9.74666667 30.96,10.2833333 31.44,10.73 C31.92,11.1766667 32.48,11.52 33.12,11.76 C33.76,12 34.44,12.12 35.16,12.12 C35.56,12.12 35.92,12.0866667 36.24,12.02 C36.56,11.9533333 36.8333333,11.88 37.06,11.8 C37.3133333,11.7066667 37.54,11.6 37.74,11.48 L37.46,11 C37.2866667,11.12 37.0866667,11.22 36.86,11.3 C36.66,11.38 36.42,11.45 36.14,11.51 C35.86,11.57 35.5333333,11.6 35.16,11.6 C34.4266667,11.6 33.7666667,11.48 33.18,11.24 C32.5933333,11 32.0966667,10.6733333 31.69,10.26 C31.2833333,9.84666667 30.97,9.36 30.75,8.8 C30.53,8.24 30.42,7.64 30.42,7 Z M27.9,7 C27.9,5.93333333 28.0866667,4.97 28.46,4.11 C28.8333333,3.25 29.34,2.51333333 29.98,1.9 C30.62,1.28666667 31.3666667,0.816666667 32.22,0.49 C33.0733333,0.163333333 33.98,0 34.94,0 C35.7,0 36.3766667,0.0733333333 36.97,0.22 C37.5633333,0.366666667 38.0733333,0.533333333 38.5,0.72 C38.9933333,0.933333333 39.42,1.16666667 39.78,1.42 L37.68,5.12 C37.4666667,4.96 37.2333333,4.80666667 36.98,4.66 C36.7533333,4.55333333 36.4833333,4.45 36.17,4.35 C35.8566667,4.25 35.5,4.2 35.1,4.2 C34.6866667,4.2 34.3066667,4.27333333 33.96,4.42 C33.6133333,4.56666667 33.31,4.76666667 33.05,5.02 C32.79,5.27333333 32.5866667,5.57 32.44,5.91 C32.2933333,6.25 32.22,6.61333333 32.22,7 C32.22,7.38666667 32.2966667,7.75 32.45,8.09 C32.6033333,8.43 32.8133333,8.72666667 33.08,8.98 C33.3466667,9.23333333 33.66,9.43333333 34.02,9.58 C34.38,9.72666667 34.7733333,9.8 35.2,9.8 C35.6266667,9.8 36.0066667,9.74666667 36.34,9.64 C36.6733333,9.53333333 36.9533333,9.41333333 37.18,9.28 C37.4466667,9.13333333 37.68,8.96 37.88,8.76 L39.98,12.46 C39.62,12.7533333 39.1933333,13.0133333 38.7,13.24 C38.2733333,13.4266667 37.76,13.6 37.16,13.76 C36.56,13.92 35.8733333,14 35.1,14 C34.06,14 33.1,13.83 32.22,13.49 C31.34,13.15 30.58,12.6733333 29.94,12.06 C29.3,11.4466667 28.8,10.71 28.44,9.85 C28.08,8.99 27.9,8.04 27.9,7 Z" id="Shape"></path>
            <path d="M0,37.66 L0,24.32 L3.7,24.32 C4.95333333,24.32 6.07,24.46 7.05,24.74 C8.03,25.02 8.85666667,25.44 9.53,26 C10.2033333,26.56 10.7166667,27.2566667 11.07,28.09 C11.4233333,28.9233333 11.6,29.8866667 11.6,30.98 C11.6,32.0733333 11.4233333,33.0366667 11.07,33.87 C10.7166667,34.7033333 10.2033333,35.4 9.53,35.96 C8.85666667,36.52 8.03,36.9433333 7.05,37.23 C6.07,37.5166667 4.95333333,37.66 3.7,37.66 L0,37.66 Z M2.52,35.58 L2.52,26.4 L3.7,26.4 C5.39333333,26.4 6.71,26.7833333 7.65,27.55 C8.59,28.3166667 9.06,29.46 9.06,30.98 C9.06,32.5 8.59,33.6466667 7.65,34.42 C6.71,35.1933333 5.39333333,35.58 3.7,35.58 L2.52,35.58 Z M2,36.06 L3.7,36.06 C5.64666667,36.06 7.11666667,35.6166667 8.11,34.73 C9.10333333,33.8433333 9.6,32.5933333 9.6,30.98 C9.6,29.3666667 9.10333333,28.12 8.11,27.24 C7.11666667,26.36 5.64666667,25.92 3.7,25.92 L2,25.92 L2,36.06 Z M4.26,33.86 C5.26,33.86 6.03333333,33.6233333 6.58,33.15 C7.12666667,32.6766667 7.4,31.9533333 7.4,30.98 C7.4,30.0066667 7.12666667,29.2866667 6.58,28.82 C6.03333333,28.3533333 5.26,28.12 4.26,28.12 L4.26,33.86 Z" id="Shape"></path>
            <path d="M12.55,31 C12.55,30.04 12.7333333,29.1333333 13.1,28.28 C13.4666667,27.4266667 13.9666667,26.6833333 14.6,26.05 C15.2333333,25.4166667 15.9766667,24.9166667 16.83,24.55 C17.6833333,24.1833333 18.59,24 19.55,24 C20.51,24 21.4166667,24.1833333 22.27,24.55 C23.1233333,24.9166667 23.8666667,25.4166667 24.5,26.05 C25.1333333,26.6833333 25.6333333,27.4266667 26,28.28 C26.3666667,29.1333333 26.55,30.04 26.55,31 C26.55,31.96 26.3666667,32.8666667 26,33.72 C25.6333333,34.5733333 25.1333333,35.3166667 24.5,35.95 C23.8666667,36.5833333 23.1233333,37.0833333 22.27,37.45 C21.4166667,37.8166667 20.51,38 19.55,38 C18.59,38 17.6833333,37.8166667 16.83,37.45 C15.9766667,37.0833333 15.2333333,36.5833333 14.6,35.95 C13.9666667,35.3166667 13.4666667,34.5733333 13.1,33.72 C12.7333333,32.8666667 12.55,31.96 12.55,31 Z M14.43,31 C14.43,31.7066667 14.5633333,32.37 14.83,32.99 C15.0966667,33.61 15.4633333,34.1533333 15.93,34.62 C16.3966667,35.0866667 16.94,35.4533333 17.56,35.72 C18.18,35.9866667 18.8433333,36.12 19.55,36.12 C20.2566667,36.12 20.92,35.9866667 21.54,35.72 C22.16,35.4533333 22.7033333,35.0866667 23.17,34.62 C23.6366667,34.1533333 24.0033333,33.61 24.27,32.99 C24.5366667,32.37 24.67,31.7066667 24.67,31 C24.67,30.2933333 24.5366667,29.63 24.27,29.01 C24.0033333,28.39 23.6366667,27.8466667 23.17,27.38 C22.7033333,26.9133333 22.16,26.5466667 21.54,26.28 C20.92,26.0133333 20.2566667,25.88 19.55,25.88 C18.8433333,25.88 18.18,26.0133333 17.56,26.28 C16.94,26.5466667 16.3966667,26.9133333 15.93,27.38 C15.4633333,27.8466667 15.0966667,28.39 14.83,29.01 C14.5633333,29.63 14.43,30.2933333 14.43,31 Z M16.75,31 C16.75,31.3866667 16.8233333,31.75 16.97,32.09 C17.1166667,32.43 17.3166667,32.7266667 17.57,32.98 C17.8233333,33.2333333 18.12,33.4333333 18.46,33.58 C18.8,33.7266667 19.1633333,33.8 19.55,33.8 C19.9366667,33.8 20.3,33.7266667 20.64,33.58 C20.98,33.4333333 21.2766667,33.2333333 21.53,32.98 C21.7833333,32.7266667 21.9833333,32.43 22.13,32.09 C22.2766667,31.75 22.35,31.3866667 22.35,31 C22.35,30.6133333 22.2766667,30.25 22.13,29.91 C21.9833333,29.57 21.7833333,29.2733333 21.53,29.02 C21.2766667,28.7666667 20.98,28.5666667 20.64,28.42 C20.3,28.2733333 19.9366667,28.2 19.55,28.2 C19.1633333,28.2 18.8,28.2733333 18.46,28.42 C18.12,28.5666667 17.8233333,28.7666667 17.57,29.02 C17.3166667,29.2733333 17.1166667,29.57 16.97,29.91 C16.8233333,30.25 16.75,30.6133333 16.75,31 Z M19.55,35.6 C18.91,35.6 18.3133333,35.48 17.76,35.24 C17.2066667,35 16.72,34.67 16.3,34.25 C15.88,33.83 15.55,33.3433333 15.31,32.79 C15.07,32.2366667 14.95,31.64 14.95,31 C14.95,30.36 15.07,29.7633333 15.31,29.21 C15.55,28.6566667 15.88,28.17 16.3,27.75 C16.72,27.33 17.2066667,27 17.76,26.76 C18.3133333,26.52 18.91,26.4 19.55,26.4 C20.19,26.4 20.7866667,26.52 21.34,26.76 C21.8933333,27 22.38,27.33 22.8,27.75 C23.22,28.17 23.55,28.6566667 23.79,29.21 C24.03,29.7633333 24.15,30.36 24.15,31 C24.15,31.64 24.03,32.2366667 23.79,32.79 C23.55,33.3433333 23.22,33.83 22.8,34.25 C22.38,34.67 21.8933333,35 21.34,35.24 C20.7866667,35.48 20.19,35.6 19.55,35.6 Z" id="Shape"></path>
            <path d="M27.8,24.32 L31.3,24.32 L34.98,29.46 L34.98,24.32 L39.16,24.32 L39.16,37.66 L35.64,37.66 L31.98,32.54 L31.98,37.66 L27.8,37.66 L27.8,24.32 Z M30.18,36.06 L30.18,26.82 L36.78,36.06 L37.3,36.06 L37.3,25.92 L36.78,25.92 L36.78,35.16 L30.18,25.92 L29.66,25.92 L29.66,36.06 L30.18,36.06 Z" id="Shape"></path>
            <path d="M44.67,24.32 L47.87,24.32 L52.93,37.66 L48.73,37.66 L48.29,36.46 L44.25,36.46 L43.81,37.66 L39.61,37.66 L44.67,24.32 Z M47.17,33.52 L46.27,31.18 L45.37,33.52 L47.17,33.52 Z M42.59,36.06 L42.97,35.06 L49.57,35.06 L49.95,36.06 L50.51,36.06 L46.65,25.92 L45.89,25.92 L42.03,36.06 L42.59,36.06 Z M46.27,26.4 L49.39,34.58 L43.15,34.58 L46.27,26.4 Z" id="Shape"></path>
            <path d="M57.54,33.02 C58.06,33.02 58.5666667,32.9666667 59.06,32.86 L60.96,36.06 L61.58,36.06 L59.58,32.7 C60.3,32.4466667 60.8733333,32.0566667 61.3,31.53 C61.7266667,31.0033333 61.94,30.32 61.94,29.48 C61.94,28.8933333 61.8266667,28.38 61.6,27.94 C61.3733333,27.5 61.0633333,27.13 60.67,26.83 C60.2766667,26.53 59.8133333,26.3033333 59.28,26.15 C58.7466667,25.9966667 58.1666667,25.92 57.54,25.92 L55.38,25.92 L55.38,36.06 L55.9,36.06 L55.9,33.02 L57.54,33.02 Z M55.9,32.54 L55.9,26.4 L57.54,26.4 C58.7533333,26.4 59.7033333,26.6666667 60.39,27.2 C61.0766667,27.7333333 61.42,28.4933333 61.42,29.48 C61.42,30.4666667 61.0766667,31.2233333 60.39,31.75 C59.7033333,32.2766667 58.7533333,32.54 57.54,32.54 L55.9,32.54 Z M53.38,24.32 L57.98,24.32 C58.8333333,24.32 59.6233333,24.4333333 60.35,24.66 C61.0766667,24.8866667 61.7066667,25.22 62.24,25.66 C62.7733333,26.1 63.19,26.6433333 63.49,27.29 C63.79,27.9366667 63.94,28.68 63.94,29.52 C63.94,30.1866667 63.8466667,30.7533333 63.66,31.22 C63.4733333,31.6866667 63.2666667,32.0733333 63.04,32.38 C62.7733333,32.7266667 62.4733333,33.02 62.14,33.26 L64.64,37.66 L59.64,37.66 L57.64,34.28 L57.64,37.66 L53.38,37.66 L53.38,24.32 Z M57.64,30.88 L57.86,30.88 C58.3666667,30.88 58.7966667,30.7666667 59.15,30.54 C59.5033333,30.3133333 59.68,29.9333333 59.68,29.4 C59.68,28.8666667 59.5033333,28.4866667 59.15,28.26 C58.7966667,28.0333333 58.3666667,27.92 57.86,27.92 L57.64,27.92 L57.64,30.88 Z" id="Shape"></path>
            <path d="M70.65,38 C69.81,38 69.05,37.8933333 68.37,37.68 C67.69,37.4666667 67.11,37.1466667 66.63,36.72 C66.15,36.2933333 65.78,35.7533333 65.52,35.1 C65.26,34.4466667 65.13,33.68 65.13,32.8 L65.13,24.32 L69.39,24.32 L69.39,32.62 C69.39,33.0866667 69.4866667,33.4433333 69.68,33.69 C69.8733333,33.9366667 70.1966667,34.06 70.65,34.06 C71.1033333,34.06 71.4266667,33.9366667 71.62,33.69 C71.8133333,33.4433333 71.91,33.0866667 71.91,32.62 L71.91,24.32 L76.19,24.32 L76.19,32.8 C76.19,33.68 76.06,34.4466667 75.8,35.1 C75.54,35.7533333 75.1666667,36.2933333 74.68,36.72 C74.1933333,37.1466667 73.61,37.4666667 72.93,37.68 C72.25,37.8933333 71.49,38 70.65,38 Z M70.65,35.6 C68.65,35.6 67.65,34.62 67.65,32.66 L67.65,25.92 L67.13,25.92 L67.13,32.66 C67.13,33.78 67.4333333,34.6366667 68.04,35.23 C68.6466667,35.8233333 69.5166667,36.12 70.65,36.12 C71.7833333,36.12 72.6566667,35.8233333 73.27,35.23 C73.8833333,34.6366667 74.19,33.78 74.19,32.66 L74.19,25.92 L73.65,25.92 L73.65,32.66 C73.65,34.62 72.65,35.6 70.65,35.6 Z" id="Shape"></path>
            <path d="M77.68,37.66 L77.68,24.32 L81.38,24.32 C82.6333333,24.32 83.75,24.46 84.73,24.74 C85.71,25.02 86.5366667,25.44 87.21,26 C87.8833333,26.56 88.3966667,27.2566667 88.75,28.09 C89.1033333,28.9233333 89.28,29.8866667 89.28,30.98 C89.28,32.0733333 89.1033333,33.0366667 88.75,33.87 C88.3966667,34.7033333 87.8833333,35.4 87.21,35.96 C86.5366667,36.52 85.71,36.9433333 84.73,37.23 C83.75,37.5166667 82.6333333,37.66 81.38,37.66 L77.68,37.66 Z M80.2,35.58 L80.2,26.4 L81.38,26.4 C83.0733333,26.4 84.39,26.7833333 85.33,27.55 C86.27,28.3166667 86.74,29.46 86.74,30.98 C86.74,32.5 86.27,33.6466667 85.33,34.42 C84.39,35.1933333 83.0733333,35.58 81.38,35.58 L80.2,35.58 Z M79.68,36.06 L81.38,36.06 C83.3266667,36.06 84.7966667,35.6166667 85.79,34.73 C86.7833333,33.8433333 87.28,32.5933333 87.28,30.98 C87.28,29.3666667 86.7833333,28.12 85.79,27.24 C84.7966667,26.36 83.3266667,25.92 81.38,25.92 L79.68,25.92 L79.68,36.06 Z M81.94,33.86 C82.94,33.86 83.7133333,33.6233333 84.26,33.15 C84.8066667,32.6766667 85.08,31.9533333 85.08,30.98 C85.08,30.0066667 84.8066667,29.2866667 84.26,28.82 C83.7133333,28.3533333 82.94,28.12 81.94,28.12 L81.94,33.86 Z" id="Shape"></path>
            <path d="M90.23,31 C90.23,30.04 90.4133333,29.1333333 90.78,28.28 C91.1466667,27.4266667 91.6466667,26.6833333 92.28,26.05 C92.9133333,25.4166667 93.6566667,24.9166667 94.51,24.55 C95.3633333,24.1833333 96.27,24 97.23,24 C98.19,24 99.0966667,24.1833333 99.95,24.55 C100.803333,24.9166667 101.546667,25.4166667 102.18,26.05 C102.813333,26.6833333 103.313333,27.4266667 103.68,28.28 C104.046667,29.1333333 104.23,30.04 104.23,31 C104.23,31.96 104.046667,32.8666667 103.68,33.72 C103.313333,34.5733333 102.813333,35.3166667 102.18,35.95 C101.546667,36.5833333 100.803333,37.0833333 99.95,37.45 C99.0966667,37.8166667 98.19,38 97.23,38 C96.27,38 95.3633333,37.8166667 94.51,37.45 C93.6566667,37.0833333 92.9133333,36.5833333 92.28,35.95 C91.6466667,35.3166667 91.1466667,34.5733333 90.78,33.72 C90.4133333,32.8666667 90.23,31.96 90.23,31 Z M92.11,31 C92.11,31.7066667 92.2433333,32.37 92.51,32.99 C92.7766667,33.61 93.1433333,34.1533333 93.61,34.62 C94.0766667,35.0866667 94.62,35.4533333 95.24,35.72 C95.86,35.9866667 96.5233333,36.12 97.23,36.12 C97.9366667,36.12 98.6,35.9866667 99.22,35.72 C99.84,35.4533333 100.383333,35.0866667 100.85,34.62 C101.316667,34.1533333 101.683333,33.61 101.95,32.99 C102.216667,32.37 102.35,31.7066667 102.35,31 C102.35,30.2933333 102.216667,29.63 101.95,29.01 C101.683333,28.39 101.316667,27.8466667 100.85,27.38 C100.383333,26.9133333 99.84,26.5466667 99.22,26.28 C98.6,26.0133333 97.9366667,25.88 97.23,25.88 C96.5233333,25.88 95.86,26.0133333 95.24,26.28 C94.62,26.5466667 94.0766667,26.9133333 93.61,27.38 C93.1433333,27.8466667 92.7766667,28.39 92.51,29.01 C92.2433333,29.63 92.11,30.2933333 92.11,31 Z M94.43,31 C94.43,31.3866667 94.5033333,31.75 94.65,32.09 C94.7966667,32.43 94.9966667,32.7266667 95.25,32.98 C95.5033333,33.2333333 95.8,33.4333333 96.14,33.58 C96.48,33.7266667 96.8433333,33.8 97.23,33.8 C97.6166667,33.8 97.98,33.7266667 98.32,33.58 C98.66,33.4333333 98.9566667,33.2333333 99.21,32.98 C99.4633333,32.7266667 99.6633333,32.43 99.81,32.09 C99.9566667,31.75 100.03,31.3866667 100.03,31 C100.03,30.6133333 99.9566667,30.25 99.81,29.91 C99.6633333,29.57 99.4633333,29.2733333 99.21,29.02 C98.9566667,28.7666667 98.66,28.5666667 98.32,28.42 C97.98,28.2733333 97.6166667,28.2 97.23,28.2 C96.8433333,28.2 96.48,28.2733333 96.14,28.42 C95.8,28.5666667 95.5033333,28.7666667 95.25,29.02 C94.9966667,29.2733333 94.7966667,29.57 94.65,29.91 C94.5033333,30.25 94.43,30.6133333 94.43,31 Z M97.23,35.6 C96.59,35.6 95.9933333,35.48 95.44,35.24 C94.8866667,35 94.4,34.67 93.98,34.25 C93.56,33.83 93.23,33.3433333 92.99,32.79 C92.75,32.2366667 92.63,31.64 92.63,31 C92.63,30.36 92.75,29.7633333 92.99,29.21 C93.23,28.6566667 93.56,28.17 93.98,27.75 C94.4,27.33 94.8866667,27 95.44,26.76 C95.9933333,26.52 96.59,26.4 97.23,26.4 C97.87,26.4 98.4666667,26.52 99.02,26.76 C99.5733333,27 100.06,27.33 100.48,27.75 C100.9,28.17 101.23,28.6566667 101.47,29.21 C101.71,29.7633333 101.83,30.36 101.83,31 C101.83,31.64 101.71,32.2366667 101.47,32.79 C101.23,33.3433333 100.9,33.83 100.48,34.25 C100.06,34.67 99.5733333,35 99.02,35.24 C98.4666667,35.48 97.87,35.6 97.23,35.6 Z" id="Shape"></path>
        </g>
        <g id="Group" fill-rule="nonzero">
            <g>
                <path d="M45.5179535,24.7384134 C45.5179535,24.7384134 50.036979,30.64198 38.3983425,38.3669759 C26.7597059,46.0919719 10.5326948,48.6483189 7.30347405,40.329043 C4.07425326,32.0097671 7.0894341,34.4728559 19.4956179,33.0488994 C31.9018018,31.624943 40.1624598,18.7038566 42.1579543,20.1123772 C44.1534488,21.5208978 45.5179535,24.7384134 45.5179535,24.7384134 Z" id="Path" fill="#F9A332"></path>
                <g opacity="0.3" transform="translate(6.119833, 25.555012)" fill="#6D184E" id="Path">
                    <path d="M0.0263269144,9.90745258 C0.152182408,10.8222406 0.545801884,12.0444592 1.18364095,13.688162 C4.41286174,22.0076523 20.6398728,19.4515197 32.2782953,11.726095 C38.3634512,7.68704952 40.0312506,4.14688194 40.2377991,1.68743772 C40.2410097,1.72388346 40.2437922,1.76054358 40.2463607,1.79763248 C40.2261575,1.4960351 40.1832273,1.19639827 40.1179367,0.901281688 C39.6226483,3.298125 37.7106294,6.50599319 32.2791515,10.1113343 C27.9465547,12.9869031 23.0112215,15.1438477 18.3136866,16.2927461 C16.8941736,16.6297619 13.2666245,17.3565329 12.2702685,16.3283342 C11.0200611,15.0379407 13.1563939,13.4984298 15.1120769,14.7343691 C19.0718161,17.2369051 21.4632845,14.4127891 22.3487678,13.3680827 C23.2342511,12.3233763 24.3179354,11.8122784 26.8954045,11.5087068 C29.4728736,11.2051353 30.6839117,9.68641989 32.0482024,7.52390124 C33.412493,5.3613826 35.8180881,7.61866016 37.3715901,4.81040878 C38.9250921,2.00215739 37.5989005,1.60361252 39.9289395,1.11030872 L39.6827935,0 C39.6827935,0 37.6586177,0.295853646 37.5244146,1.20592519 C37.3902116,2.11599673 38.0535214,4.52591763 35.9507929,5.28484655 C33.8480644,6.04377546 31.8810372,4.88994624 30.7806578,6.5960356 C29.6802784,8.30212496 28.6571674,10.2937774 24.9251667,10.6449428 C21.1931661,10.9961082 21.155281,15.5882714 15.8498727,13.5578149 C10.5444643,11.5273585 11.0125697,16.1881253 8.93145922,15.8881984 C6.85034874,15.5882714 7.89336544,13.8236544 6.28314286,14.127226 C5.33708626,14.3055957 4.54364015,14.9847728 4.0494219,15.5147367 C2.74848705,14.6906342 1.75919439,13.5554567 1.18364095,12.0734014 C0.762410318,10.9877472 0.448413705,10.0871086 0.246788067,9.33611202 C0.114939456,9.54342396 0.032748113,9.7893255 0,10.080677 C0.00684927854,10.0210775 0.0154108767,9.96319312 0.0263269144,9.90745258 Z"></path>
                </g>
                <path d="M17.3325302,46 C15.4560419,46 13.7554944,45.7641746 12.2741239,45.2940246 C9.55581649,44.4296174 7.7221362,42.8215028 6.82680707,40.5147019 C5.68147928,37.563669 5.20010342,35.7471705 5.94239398,34.6019167 C6.74525785,33.3614753 8.69152316,33.2643581 12.2244666,33.0883466 C14.1431208,32.9925157 16.5309505,32.8739599 19.4376131,32.5399454 C27.1537535,31.654314 33.2179335,26.2414786 37.2307545,22.6599343 C39.9141734,20.2645917 41.3923334,18.9450416 42.4533294,19.69368 C44.422497,21.0841921 45.7685943,24.0335099 45.9661531,24.4843652 C46.1928215,24.8104473 47.2140061,26.4500768 46.7934176,28.9693349 C46.2401243,32.2828958 43.5109008,35.5883099 38.6813033,38.7940342 C34.479913,41.5827764 29.5535694,43.778525 24.81023,44.9771611 C22.1128985,45.6582676 19.5949325,46 17.3325302,46 Z M41.7947285,20.5188544 C41.6770065,20.5188544 41.384842,20.5861718 40.7459327,21.0355263 C40.0012877,21.559273 39.0336131,22.4236802 37.9111875,23.4248661 C33.8016204,27.0925938 27.5921073,32.6353475 19.5538368,33.5578535 C16.6148542,33.8952981 14.208617,34.0151403 12.2751941,34.1116143 C9.29062099,34.2603987 7.31888493,34.3588022 6.80090824,35.1593221 C6.30540575,35.924897 6.83408443,37.7053786 7.78035507,40.1433841 C8.55796223,42.1470422 10.1739639,43.5521327 12.5836257,44.3174932 C18.8220342,46.3009989 29.5597766,43.6190213 38.1155957,37.9399176 C42.6164279,34.952439 45.2660285,31.8039559 45.7782261,28.8347001 C46.1793369,26.5079612 45.1545136,25.1067297 45.1106354,25.0482022 C45.0849858,25.0144309 45.0634308,24.9777282 45.0464235,24.938865 C45.0284441,24.8959876 43.7097439,21.8351887 41.8623651,20.5310744 C41.8412577,20.5211992 41.8179503,20.5169882 41.7947285,20.5188544 Z" id="Shape" fill="#6D184E"></path>
                <path d="M5.16628511,35.0902896 C5.16628511,35.0902896 2.21082142,34.6349323 1.94562591,36.6460939 C1.68043041,38.6572555 4.93897468,37.8605945 4.9010896,39.4166132 C4.86320453,40.9726319 4.82531946,43.02174 8.15941983,41.618579 C11.4935202,40.2154181 12.402976,38.4349365 13.463758,40.2355704 C14.52454,42.0362043 16.2295823,41.7324183 17.0253828,40.0246139 C17.8211834,38.3168094 19.3851733,37.9958725 22.4487272,39.7501989 C25.5122811,41.5045253 25.9574842,35.3093928 30.1346879,36.0198703 C34.3118917,36.7303479 34.4918993,34.7106108 36.7271185,32.3197703 C38.9623378,29.9289298 43.6607288,32.547449 43.5091885,29.0938936 C43.3576482,25.6403382 43.7176634,26.9401648 45.7919246,25.43174 C47.8661858,23.9233152 47.8375045,20.3942957 43.774598,20.7073003 C39.7116916,21.0203049 29.6042969,35.6215398 5.16628511,35.0902896 Z" id="Path" fill="#48C75A"></path>
                <g opacity="0.6" transform="translate(23.301248, 22.426467)" fill="#FFFFFF" id="Path">
                    <path d="M22.6473535,1.56823871 C20.6317393,3.13926445 20.0018197,3.30905872 20.27151,4.52077235 C20.48555,3.7687038 21.1062659,4.01203271 22.4911044,3.00548715 C23.5150715,2.26092214 24.0253428,1.02412527 23.7920392,0 C23.544395,0.483013236 23.0955532,1.21878839 22.6473535,1.56823871 Z"></path>
                    <path d="M20.1998067,6.4686899 C19.4793482,8.88632872 15.1996193,6.70665914 13.0495879,9.17146303 C10.6594038,11.9117538 10.4669819,14.2277734 6.00082416,13.4122463 C2.76882085,12.8220398 1.62606153,16.3774288 0,17.6251594 C2.3383865,17.8978593 3.07725242,12.9536732 6.83343959,13.5936175 C11.0106433,14.305167 11.1906509,12.2843579 13.4258702,9.89351744 C15.6610894,7.50267696 20.3594805,10.1211961 20.2079402,6.66764076 C20.2051577,6.5992514 20.2023751,6.53343469 20.1998067,6.4686899 Z"></path>
                </g>
                <g opacity="0.3" transform="translate(1.929633, 20.688748)" fill="#6D184E" id="Path">
                    <path d="M31.5393694,11.4792368 C33.358709,9.61986093 37.3740986,8.74687828 40.9357234,5.48326955 C43.1022358,3.49783432 42.9554044,1.3670449 42.5078469,0.00290232991 C42.2865525,-0.00392671367 42.0650511,0.00129773637 41.844323,0.018552559 C37.7807745,0.331557141 27.674878,14.9327921 3.23601006,14.4015419 C3.23601006,14.4015419 0.280546368,13.9461845 0.0153508642,15.9573462 C-0.249844639,17.9685078 3.00934175,17.1718468 2.97145667,18.7278655 C2.9335716,20.2838842 2.89568653,22.3329922 6.2297869,20.9298313 C9.56388727,19.5266703 10.473343,17.7461888 11.5341251,19.5466083 C12.5949071,21.3470278 14.2999493,21.0436706 15.0957499,19.3358662 C15.8915504,17.6280617 17.4553264,17.3071248 20.5190943,19.0614512 C23.5828622,20.8157776 24.0278512,14.6206451 28.205055,15.3311226 C29.1277812,15.4882681 29.855089,15.5116362 30.4524745,15.4275966 C30.3114222,14.5070201 30.2671159,12.7801353 31.5393694,11.4792368 Z"></path>
                </g>
                <path d="M6.3212447,42.5190031 C5.90557911,42.5190031 5.55862034,42.4223147 5.27587356,42.2291523 C4.41307851,41.6398033 4.44325814,40.4008626 4.46744466,39.4054651 C4.47579222,39.0686636 4.20267723,38.9260964 3.37776725,38.6692612 C2.5605627,38.4147842 1.32576621,38.02996 1.51561965,36.5897102 C1.59267403,36.0059352 1.86043801,35.5377146 2.31184828,35.1987693 C3.3266117,34.4368389 4.95074687,34.6227122 5.20138766,34.6570141 C22.7400356,35.0300469 32.6706333,27.6615761 38.6055331,23.2578588 C40.9486285,21.5191827 42.4967795,20.3704988 43.7412078,20.2746679 C46.4126405,20.0697142 47.2086551,21.427854 47.4259056,22.0214907 C47.8893021,23.2833709 47.3092539,24.8657591 46.0468462,25.7837629 C45.4013017,26.2532698 44.9124344,26.4670134 44.5539175,26.6230869 C44.1414625,26.8031717 44.0633379,26.8490505 44.0029787,27.0224893 C43.8914639,27.3429974 43.8972429,28.045757 43.9424054,29.0754563 C43.9747254,29.8146617 43.811627,30.3692801 43.4434782,30.7712551 C42.8075655,31.465868 41.7273059,31.5117468 40.5834764,31.5604126 C39.2778326,31.6159387 37.9261703,31.6733944 37.0436836,32.6171246 C36.5548163,33.1400138 36.1733971,33.6365334 35.8046063,34.1178315 C34.5481918,35.7531733 33.5559025,37.0448531 30.0619143,36.4497157 C28.1916332,36.131137 27.1623151,37.388515 26.1663872,38.6047308 C25.179663,39.809584 24.0615182,41.1747985 22.233189,40.1279483 C20.588934,39.1863619 19.3436496,38.8403418 18.5302977,39.0988921 C18.0609081,39.2489628 17.6974683,39.6112763 17.4187883,40.2089865 C16.9491846,41.2166039 16.1544542,41.8438994 15.2929434,41.8854905 C14.4404223,41.9283678 13.6581063,41.4196282 13.0911144,40.4570319 C12.9025452,40.1373813 12.7323835,39.962013 12.5707833,39.9210651 C12.2657764,39.8443147 11.7129112,40.1783292 11.0127865,40.6036724 C10.3265744,41.019797 9.47169879,41.5373264 8.32808331,42.0186246 C7.53378104,42.3526391 6.86768871,42.5190031 6.3212447,42.5190031 Z M4.49441369,35.4800446 C3.96380864,35.4800446 3.27053323,35.5632267 2.83089517,35.8944541 C2.57040854,36.0908323 2.42143673,36.3551711 2.37563218,36.7029064 C2.2900162,37.3537844 2.67314772,37.5405152 3.63525731,37.8391559 C4.36299316,38.0657626 5.35999127,38.3764089 5.33452051,39.4256175 C5.31525692,40.2107015 5.29171252,41.1874474 5.76452678,41.5105281 C6.14530386,41.7707936 6.91541962,41.6687455 7.99054231,41.2157464 C9.076367,40.7584596 9.90020678,40.2589386 10.5622324,39.8576067 C11.4695477,39.3077048 12.124724,38.9106606 12.7809705,39.0757384 C13.1844358,39.1773577 13.5198364,39.4751408 13.8364015,40.0123939 C14.2319474,40.6836386 14.733229,41.0367335 15.2490652,41.0148661 C15.7841651,40.9889253 16.3000014,40.5492181 16.6311212,39.8385262 C17.0125404,39.0199978 17.5626231,38.4915346 18.2659584,38.2679293 C19.3344459,37.9274832 20.7727943,38.2893679 22.6625531,39.3709488 C23.8016737,40.0231132 24.4176807,39.3668755 25.4949438,38.0509699 C26.5398869,36.7751547 27.8397515,35.1871924 30.2061773,35.5902394 C33.1860415,36.0983359 33.8713974,35.2043433 35.1160398,33.5850806 C35.4799077,33.1117147 35.8919346,32.5751048 36.4096973,32.0215584 C37.5342632,30.818849 39.1339978,30.750674 40.5455913,30.6906457 C41.5047043,30.6499123 42.4103074,30.6113227 42.8034988,30.1821205 C43.0079069,29.9587295 43.0967335,29.6086361 43.0749014,29.1116877 C42.9678815,26.678613 43.0950212,26.3098679 44.2065307,25.8249252 C44.5453559,25.6769984 44.9672287,25.4928402 45.5361469,25.0790739 C46.4757823,24.3958234 46.9376805,23.2094075 46.6110555,22.3194883 C46.2899956,21.4435042 45.2936396,21.0233063 43.8071321,21.1388607 C42.8116323,21.2153968 41.1830023,22.4238946 39.1211554,23.9537581 C36.1900923,26.1287111 32.175987,29.1074 26.6451945,31.5070303 C20.1169759,34.3397218 12.885208,35.6914299 5.15558311,35.522922 C5.13687597,35.5224685 5.11821669,35.5208215 5.09971868,35.5179911 L5.09971868,35.5179911 C4.89908949,35.4911294 4.69682109,35.4784492 4.49441369,35.4800446 Z" id="Shape" fill="#6D184E"></path>
                <path d="M36.8097379,13.5339213 C36.2884748,13.7450464 35.8250729,14.077781 35.4580756,14.5044499 C33.1952452,16.0649707 28.2663332,19.2068078 22.0127278,21.6821166 C15.7811686,24.2118797 10.0489645,25.3449134 7.33622217,25.7792608 C6.77660328,25.7242285 6.21195206,25.8037531 5.68918472,26.0112272 C3.28551603,26.9759674 2.42143673,30.4704706 3.75918645,33.8174758 C5.09693616,37.1644809 7.75402816,38.4679521 10.533765,38.1337232 C16.7195197,37.2866813 22.2477437,35.5027696 26.7693377,33.5848662 C31.3632773,31.8483339 36.5937716,29.3185709 41.6543183,25.6566316 C43.8966008,23.9773406 44.9222803,21.1973883 43.5843165,17.8503831 C42.2463528,14.5033779 39.2136207,12.5704675 36.8097379,13.5339213 Z" id="Path" fill="#DB2839"></path>
                <g opacity="0.45" transform="translate(3.129643, 20.251729)" fill="#6D184E" id="Shape">
                    <path d="M41.0518446,1.78369735 L41.5165253,0 C41.5165253,0 27.9354762,1.2106417 26.2852281,11.1637586 C23.0656391,12.5062482 19.3531161,13.7694146 15.270518,14.6779854 L13.9087958,13.0810189 C13.9087958,13.0810189 11.4901444,12.8651315 10.3816314,11.4135191 C9.27311851,9.9619068 7.41375342,9.49883152 6.45999139,11.7550372 C6.05631203,12.7101299 5.53640898,13.2533858 5.07065804,13.5636034 C4.518649,12.9393093 4.04326626,12.1653733 3.66976654,11.2319336 C2.84956543,9.17960973 2.85834107,7.07283163 3.54134257,5.52688913 C3.20446196,5.55580772 2.87365706,5.63418243 2.5595413,5.7594987 C0.155872608,6.72423885 -0.708206688,10.2187421 0.629543027,13.5657472 C1.96729274,16.9127524 4.62438474,18.2162235 7.40412162,17.8819947 C13.5898763,17.0349528 19.1181003,15.2510411 23.6396943,13.3331377 C28.2336338,11.5966054 33.4641282,9.06684232 38.5246748,5.4049031 C38.8954447,5.12809942 39.2371674,4.81426837 39.5445752,4.46824761 C37.0285356,6.13231717 34.4979412,7.52990407 32.048896,8.70367125 C31.5242841,8.95493247 31.014655,8.33707 31.3571189,7.86756312 C33.0940531,5.48079599 36.5452333,1.73181576 41.0518446,1.78369735 Z M7.35660475,15.1828661 C6.95784832,15.025935 6.86110226,14.5056185 7.18537279,14.2249863 C7.67766469,13.7983568 8.14534199,13.3539332 8.36409082,13.0357833 C8.69777911,12.5514837 9.18835868,13.6945936 10.6571009,14.4856806 C11.1382627,14.7446597 11.011551,15.4703587 10.470458,15.5447509 L10.4445592,15.5483954 C9.37414536,15.6770275 8.32213899,15.5627593 7.35660475,15.1828661 L7.35660475,15.1828661 Z"></path>
                </g>
                <path d="M9.7005075,38.6186659 C6.86811679,38.6186659 4.53743572,36.9335864 3.35679133,33.9791233 C2.67614428,32.2762498 2.51411603,30.4781885 2.90024411,28.916167 C3.29942863,27.3024783 4.23242879,26.1276392 5.52801263,25.6081802 C6.09670368,25.3820109 6.71001095,25.2910143 7.31974109,25.3423407 C10.1463527,24.8869834 15.7452099,23.7586662 21.8496294,21.2799271 C27.9784494,18.8541416 32.808475,15.8010606 35.1684796,14.1770814 C35.5741753,13.7182583 36.0807974,13.3601713 36.6483518,13.1310887 L36.6483518,13.1310887 C39.2699132,12.0805938 42.5620617,14.1245566 43.9864976,17.6891643 C45.2891448,20.9478422 44.5141061,24.0564493 41.9137347,26.0047956 C37.4604194,29.2270277 32.4210627,31.9117924 26.9309379,33.988342 C21.5257869,36.2803502 16.0290268,37.8196467 10.592626,38.5644261 C10.2965926,38.6002365 9.99869192,38.6183485 9.7005075,38.6186659 Z M6.98969148,26.1979581 C6.59955138,26.1963673 6.21274715,26.2699523 5.8503568,26.414703 C4.82082462,26.8273974 4.07211286,27.7899937 3.74206325,29.1249797 C3.39959932,30.5118472 3.54942729,32.1210338 4.1617956,33.656257 C5.32660103,36.5719161 7.62924286,38.0453959 10.4821814,37.7028059 C15.8383172,36.9691746 21.263588,35.4487442 26.59939,33.1852494 L26.615443,33.1788178 C32.0379312,31.1286378 37.0120057,28.4796757 41.3996107,25.3048231 C43.6943331,23.5860849 44.3456566,20.9264035 43.1810653,18.0120307 C41.9342825,14.892061 39.1479104,13.0642 36.9700539,13.9386834 L36.8097379,13.5339213 L36.97091,13.9371827 C36.5132365,14.1226931 36.1065134,14.4151819 35.7847006,14.7902273 C35.760826,14.817372 35.7337272,14.8414908 35.7040075,14.8620469 C33.3300904,16.4993181 28.4150909,19.6147856 22.1719735,22.0868787 C15.9538988,24.6112821 10.2505902,25.7539632 7.40535707,26.208463 C7.36997107,26.2141018 7.33402375,26.2153259 7.29833709,26.2121076 C7.19402829,26.2026746 7.09114642,26.1979581 6.98969148,26.1979581 Z" id="Shape" fill="#6D184E"></path>
                <path d="M4.55990992,29.6633047 C4.55990992,29.6633047 1.64254534,30.8398589 0.922728972,32.8512349 C0.202912605,34.8626109 4.1810592,31.5987878 8.00745146,31.9403058 C11.8338437,32.2818238 9.29554391,28.6008042 14.6379812,31.7505736 C19.9804184,34.900343 20.4727103,40.1375957 24.1101053,40.2323546 C27.7475003,40.3271135 27.5199758,37.2534514 28.8831963,38.923095 C30.2464168,40.5927386 32.8330896,40.2893815 31.4122924,37.2723174 C29.9914952,34.2552534 30.8913192,27.6141966 37.3322095,23.9329626 C43.7730998,20.2517285 47.2208554,21.0488183 47.524364,20.5173537 C47.8278727,19.985889 46.3888821,17.2537449 41.8043603,17.1784952 C37.2198385,17.1032455 25.7017064,28.8284829 4.55990992,29.6633047 Z" id="Path" fill="#FCAF15"></path>
                <g opacity="0.3" transform="translate(0.837477, 28.746802)" fill="#6D184E" id="Path">
                    <path d="M30.7064503,8.82329903 C30.1452375,9.42358179 28.87277,9.13737555 28.0470038,8.12654226 C26.6829272,6.45668425 27.0007765,9.8538559 23.3633815,9.75888259 C21.3026049,9.70507153 20.3882262,7.98933477 18.892729,5.94901654 C19.396151,5.6660261 20.2197767,4.74845102 21.0564589,3.82916085 C22.5057234,2.23541012 26.2283063,6.64705964 30.1565816,3.77384908 L30.3218205,3.00355767 C30.3218205,3.00355767 29.6381768,4.85071348 26.0575024,3.66172484 C22.476828,2.4727362 21.1392924,1.6747889 19.9931084,3.00355767 C19.2844221,3.8250875 18.4466697,4.35590897 17.9102856,4.64168645 C16.8961643,3.36136907 15.6339707,2.03474417 13.8007185,0.954235202 C13.0490102,0.511097893 12.453337,0.203881752 11.9741015,0 C11.1830098,0.14621173 10.3748663,0.277559314 9.54967096,0.394042755 C9.15284088,0.827961436 8.6156006,1.27302823 7.17018878,1.14439621 C4.9176323,0.943301481 2.61306411,1.99122367 1.24449264,2.47723832 C0.74770591,2.93173812 0.309566124,3.47778105 0.0850382113,4.10507654 C-0.634778155,6.11645256 3.34336844,2.85262943 7.1697607,3.19414745 C10.996153,3.53566546 8.45785315,-0.145354183 13.8002904,3.00441522 C19.1427277,6.15418462 19.6350196,11.3914373 23.2724146,11.4861962 C26.9098095,11.5809552 26.6822851,8.50729304 28.0455055,10.1769367 C29.3646338,11.789339 31.8213844,11.560374 30.7064503,8.82329903 Z"></path>
                </g>
                <path d="M8.06053337,31.9443792 C10.3822248,32.1315388 10.3128758,30.8115598 11.1855167,30.5223522 C9.53419846,30.1516776 9.97383652,31.7546469 8.06053337,31.9443792 Z" id="Path" fill="#F8CE36"></path>
                <path d="M0.879064821,33.4026375 C1.24764162,33.9733349 4.05199311,32.0935923 7.01773071,31.9272282 C4.59158783,31.7793014 2.13483723,33.023173 0.879064821,33.4026375 Z" id="Path" fill="#F8CE36"></path>
                <g opacity="0.5" transform="translate(29.886894, 31.983994)" fill="#FFFFFF" id="Path">
                    <path d="M0.945778384,0.00197648865 C0.669024723,0.0431387351 1.22403032,-0.0106723267 0.945778384,0.00197648865 C-0.292014673,1.91559217 -0.152246583,4.02622924 0.442142371,5.28832374 C1.17544325,6.84562873 0.840470726,7.67809229 0.157897311,7.89140706 C1.29038271,8.17461189 2.24714131,7.39145727 1.2565644,5.28832374 C0.654684046,4.00993585 0.469539485,2.08088432 0.945778384,0.00197648865 Z"></path>
                </g>
                <g opacity="0.3" transform="translate(31.297007, 25.555052)" fill="#6D184E" id="Path">
                    <path d="M1.05427861,2.89396689 L0.215241993,5.05155464 C0.215241993,5.05155464 0.65488006,3.00780623 0.215241993,1.84089942 C-0.224396073,0.673992613 -0.0649363071,-0.447464215 1.39524426,0.180474429 C2.85542483,0.808413074 3.00696512,0.687070202 3.00696512,0.687070202 C3.00696512,0.687070202 1.72186923,1.98861186 1.05427861,2.89396689 Z"></path>
                </g>
                <path d="M24.2717055,40.6688459 C24.2149849,40.6688459 24.1576222,40.6688459 24.0991893,40.6664877 C21.9966748,40.6118191 20.8479224,39.027287 19.5187343,37.1934231 C18.29571,35.5064142 16.9095872,33.5942992 14.4190183,32.1257503 C13.0643594,31.3271599 12.1429174,30.9271143 11.6016104,30.9037461 C11.2518691,30.8904541 11.1200205,31.0205869 10.8310665,31.3483841 C10.3882179,31.8496202 9.78227077,32.5352289 7.97085063,32.3744389 C6.14359154,32.2110762 4.26175226,32.9215537 2.88782979,33.4399408 C1.67700577,33.8967988 1.00984323,34.1487032 0.60338136,33.7478001 C0.263057832,33.4124993 0.453553391,32.8808203 0.516053058,32.7060951 C1.29109173,30.5347866 4.2715981,29.3114961 4.39809571,29.2604721 C4.44427128,29.2418998 4.49328143,29.2313858 4.54300076,29.229386 C18.6268298,28.6732669 28.3121377,23.3020225 34.7226343,19.7477054 C37.8955626,17.9882338 40.1885727,16.7177782 41.8124938,16.743719 C45.0646169,16.79753 46.993759,18.1723919 47.7148596,19.4411324 C47.8873758,19.7444896 48.1410131,20.3156158 47.9030007,20.7330267 C47.7060839,21.0781893 47.3073275,21.12514 46.5128112,21.2188269 C45.0592659,21.3903363 42.0348813,21.746647 37.54946,24.3102832 C31.5830963,27.7190317 30.3664932,34.0292898 31.806554,37.0877305 C32.7622424,39.1169006 31.9805685,39.8961963 31.6002195,40.136095 C30.7556178,40.670561 29.4155137,40.2587242 28.549722,39.1987963 C28.2866669,38.8772163 28.174724,38.8604941 28.1736538,38.8602797 C28.099382,38.8662826 27.8784928,39.0806693 27.7323035,39.2225932 C27.1698065,39.7669211 26.2408731,40.6688459 24.2717055,40.6688459 Z M11.5376124,30.0352656 C12.2124804,30.0352656 13.1996327,30.3984367 14.8582283,31.3764688 C17.5044042,32.9365608 19.0106034,35.0135392 20.2197151,36.6823252 C21.5127305,38.4660226 22.4470149,39.7544867 24.1218775,39.7982215 C25.8446851,39.8398126 26.5865476,39.1235466 27.1278546,38.597656 C27.4623991,38.2730746 27.7785361,37.9675735 28.222883,37.9920136 C28.6522472,38.0168824 28.9812266,38.356471 29.2200952,38.6478225 C29.8438076,39.4112535 30.7305751,39.6573695 31.1363949,39.4005342 C31.5167439,39.1599923 31.4726517,38.4143554 31.0212414,37.4571188 C30.1954753,35.7038643 30.1931208,33.1187895 31.0150342,30.7107981 C31.7245767,28.6312471 33.3591998,25.7037967 37.1188116,23.5552132 C41.7574855,20.9041073 44.9002342,20.5338614 46.4107141,20.3557061 C46.6720569,20.3248344 46.9607968,20.2913901 47.1196145,20.2547299 C47.0868663,20.1063744 46.972355,19.8094488 46.6448738,19.4291268 C46.1883266,18.8993772 44.8024179,17.6615084 41.7972969,17.6117707 C40.4023986,17.5845436 38.1971449,18.8123362 35.1406544,20.5072775 C28.6712967,24.0946101 18.9016571,29.5128052 4.65537174,30.0937932 C4.23542535,30.2775226 1.919299,31.3537438 1.33090316,32.997661 C1.32319773,33.0190997 1.31656249,33.0386089 1.31078341,33.0566174 C1.60851299,32.9923014 2.13697763,32.7931361 2.58046842,32.6257001 C4.03294355,32.0783709 6.02265897,31.3280174 8.04747693,31.5076735 C9.42161344,31.6309458 9.79083236,31.2131061 10.1814553,30.7712551 C10.554955,30.3474126 10.9119736,30.0352656 11.5376124,30.0352656 Z" id="Shape" fill="#6D184E"></path>
                <path d="M27.47781,35.2656579 C27.47781,35.2656579 26.1556852,37.7289611 24.2008583,37.4288197 C22.7179895,37.2011411 25.196144,37.4907775 25.8393341,35.6922875 C26.583337,33.6148803 27.8605134,34.6964612 27.47781,35.2656579 Z" id="Path" fill="#F8CE36"></path>
                <path d="M6.37796529,25.2042757 C6.37796529,25.2042757 1.1500394,25.4889812 0.524828696,28.3919915 C-0.100382011,31.2950018 2.62777125,30.7260195 4.72985764,30.6121802 C6.83194403,30.4983409 2.74078434,34.5399589 6.37796529,34.881477 C10.0151462,35.222995 10.7542262,29.7576348 12.9703959,32.3767971 C15.1865656,34.9959595 18.6535848,34.7108251 20.358627,32.3199847 C22.0636693,29.9291442 23.4836104,31.4660824 26.8376165,32.5476633 C30.1916225,33.6292442 32.4640847,30.782832 31.3842532,27.3104106 C30.3044216,23.8379893 36.1012657,28.3351791 37.7495874,24.7489183 C39.3979091,21.1626576 35.8748114,20.5364341 40.0804825,19.6825318 C44.2861535,18.8286296 46.104851,18.5441385 45.4227057,16.2386239 C44.7405604,13.9331093 43.1493873,12.2253049 37.8071641,14.5020916 C32.4649409,16.7788784 27.6340591,26.7412139 6.37796529,25.2042757 Z" id="Path" fill="#48C75A"></path>
                <g opacity="0.3" transform="translate(0.536173, 13.428556)" fill="#6D184E" id="Path">
                    <path d="M42.4299963,0.426945207 C42.3953219,0.309461295 42.3574368,0.194121251 42.3176254,0.0802819129 C41.1808592,-0.148683083 39.5755595,0.0910012479 37.2709913,1.07310672 C31.9287681,3.35075102 27.0978863,13.3126578 5.84179248,11.7757196 C5.84179248,11.7757196 0.673797777,12.0576381 0,14.9143409 C0.573413038,14.8929022 1.17721975,14.8313732 1.73714827,14.8011447 C2.96873417,14.7344704 2.07554544,16.0932533 1.85465621,17.2991785 C2.59073961,17.3249049 3.43277279,17.2247863 4.19368483,17.1836241 C5.19153909,17.1295986 4.79449498,18.0115855 4.4903442,18.9896176 C7.20372871,18.3035802 8.0061645,14.2364501 9.97790056,16.5657616 C12.1942843,19.1842808 15.6610894,18.8997896 17.3661317,16.5089491 C19.071174,14.1181087 20.491115,15.6550469 23.8451211,16.7366278 C27.1991272,17.8182087 29.4713754,14.9717965 28.3915438,11.4993751 C27.3117122,8.02695373 33.1104827,12.5241435 34.7585903,8.9380972 C36.406698,5.35205087 32.8831722,4.72561293 37.0888433,3.87171071 C41.2945144,3.01780848 43.1119276,2.73310294 42.4299963,0.426945207 Z"></path>
                </g>
                <g opacity="0.5" transform="translate(1.318917, 16.421281)" fill="#FFFFFF" id="Path">
                    <path d="M0.775252715,13.9357787 C0.523327689,13.9494994 0.261556824,13.969223 0,13.989161 C0.391265037,14.0963543 0.859156377,14.1214376 1.35508695,14.1087887"></path>
                    <path d="M17.3372363,15.7454168 C16.6773511,16.6709242 15.7678954,17.2969334 14.7653322,17.5857122 C16.3246133,17.7396419 17.8689116,17.0626087 18.8417231,15.6991093 C19.317962,15.0312947 19.7721548,14.6700531 20.2524605,14.5199824 C19.140737,14.2359201 18.2796542,14.4239372 17.3372363,15.7454168 Z"></path>
                    <path d="M43.997839,0 C43.6823441,1.30261359 41.7429281,1.64177335 38.2354553,2.35375158 C33.7787154,3.25867784 37.5126424,3.92220468 35.7662904,7.72263771 C34.0199384,11.5230707 28.3990352,7.26492211 29.0210353,10.4369877 C29.5893114,13.3354959 28.6864909,15.6851741 26.4739598,16.1508221 C29.1708633,16.3169718 30.8189709,13.746904 29.8677774,10.689964 C28.7879458,7.21689949 34.5847899,11.7147325 36.2328975,8.12825735 C37.8810052,4.54178224 34.3574794,3.91598747 38.5631505,3.06208524 C42.5235318,2.25792073 44.3664158,1.95777935 43.997839,0 Z"></path>
                </g>
                <path d="M6.7005235,35.3312603 C6.58258749,35.3312603 6.46186895,35.3256862 6.33815386,35.3138949 C5.49376624,35.2345719 4.93233944,34.9659453 4.62155342,34.4927939 C4.13675293,33.7548748 4.45417418,32.775342 4.70909577,31.988114 C4.8094805,31.6785397 4.95802423,31.2201809 4.93447984,31.0548887 C4.87498014,31.043439 4.81417076,31.040408 4.75383012,31.0458845 C4.52202485,31.0583189 4.28572474,31.0763274 4.03572607,31.0954078 C2.63012569,31.2026012 1.17636632,31.3125816 0.430651116,30.4556779 C0.0025712075,29.9625885 -0.10444877,29.258757 0.101029587,28.3004484 C0.78809784,25.1099455 6.12818066,24.7830058 6.35506302,24.7705714 C6.37331205,24.7694983 6.39160821,24.7694983 6.40985724,24.7705714 C22.2423927,25.9145388 28.6982658,20.7450323 33.4127098,16.9698969 C34.9418112,15.7457489 36.2622237,14.6881793 37.6374304,14.102046 C40.367296,12.9385694 42.3745627,12.6937398 43.7739559,13.3540508 C44.7634626,13.8207707 45.4194951,14.6980411 45.8385853,16.1147084 C46.0755276,16.9154427 46.0434216,17.549813 45.740341,18.0540505 C45.1074248,19.1077611 43.4015264,19.4529237 40.5753428,20.024693 L40.1665265,20.1076607 C39.108313,20.3220474 38.5062186,20.5364341 38.3771525,20.7416021 C38.3150809,20.8406488 38.3647382,21.0537492 38.4509963,21.3933377 C38.6380672,22.1288985 38.9206,23.2404935 38.144277,24.9307183 C37.1504895,27.0925938 34.8341492,26.7199897 33.300981,26.4743025 C32.7312066,26.382545 31.8701239,26.2438368 31.7228644,26.4140598 C31.7179415,26.4196339 31.6053564,26.5596284 31.7990626,27.1824218 C32.4045816,29.129053 32.0621177,30.9895008 30.8829716,32.1591946 C29.8435936,33.1906091 28.3209133,33.4830325 26.7055538,32.9620728 C25.8986232,32.7018074 25.2059899,32.4175306 24.5949058,32.1666982 C22.6291629,31.3601754 21.815811,31.0263753 20.7124351,32.5740329 C19.8113269,33.8374137 18.4290568,34.5980577 16.9196471,34.660873 C15.3087824,34.7275473 13.7897408,34.0177129 12.6405603,32.6593588 C12.3304164,32.2929719 12.0553751,32.1047404 11.8231417,32.1002383 L11.8145801,32.1002383 C11.4168939,32.1002383 10.9323074,32.6291303 10.4194677,33.1886796 C9.58128725,34.1006806 8.45415285,35.3312603 6.7005235,35.3312603 Z M4.81119282,30.1756889 C5.17912751,30.1756889 5.45331269,30.2888851 5.62454465,30.5129192 C5.9580189,30.947481 5.76153022,31.553981 5.53400575,32.2563118 C5.32595891,32.8981856 5.09030092,33.6260284 5.34607867,34.0155691 C5.50061552,34.2513944 5.86170092,34.3967486 6.419275,34.449059 C7.95222915,34.5926981 8.92354247,33.5338422 9.77970229,32.5991161 C10.4325241,31.8869235 11.0474609,31.2103191 11.8396228,31.2300427 C12.3383359,31.2399045 12.8165012,31.5231093 13.3013017,32.0959506 C14.2738992,33.2448489 15.5461527,33.8474899 16.8830463,33.7913206 C18.1231937,33.7396534 19.2614582,33.1115004 20.0061032,32.0674371 C21.5084497,29.960659 22.940805,30.5485074 24.9230291,31.3618905 C25.5195584,31.6067201 26.1957106,31.8841365 26.9707493,32.1336826 C28.2862389,32.5579539 29.4589638,32.3480693 30.2721016,31.5404746 C31.2025332,30.6186118 31.4707253,29.0460854 30.9705139,27.439257 C30.8247527,26.9706077 30.676209,26.2952896 31.0668319,25.8437912 C31.5302284,25.3078245 32.4152836,25.4503916 33.4379665,25.6150406 C35.2506709,25.9066065 36.6913738,26.0148718 37.3548977,24.566904 C38.0025826,23.1570971 37.7842618,22.2980496 37.6089631,21.6083676 C37.4901709,21.141219 37.378014,20.7000111 37.6410691,20.2804564 C37.9270265,19.8244558 38.5642234,19.5472538 39.9927261,19.2571886 L40.4019705,19.174221 C42.906238,18.6676252 44.5594826,18.3329676 44.995696,17.6070542 C45.1044283,17.4261118 45.2236485,17.1000297 45.0053278,16.362325 C44.6615796,15.2003491 44.1523786,14.4943737 43.4028106,14.1406356 C42.2576969,13.5993092 40.431722,13.8555013 37.9768978,14.9021372 C36.7110655,15.4419629 35.433461,16.4645875 33.9542309,17.6501459 C31.6451679,19.4992312 28.7714674,21.8004581 24.4598466,23.4814642 C19.4189916,25.4452463 13.5035694,26.1514361 6.37796529,25.6396951 C5.99568993,25.666279 1.47645033,26.0348098 0.949483966,28.483749 C0.806933356,29.146204 0.852523867,29.6176403 1.08497126,29.8847661 C1.54515716,30.4136581 2.83389172,30.3156834 3.97087196,30.2292856 C4.21466347,30.2106339 4.46680254,30.1915535 4.70802557,30.1784759 C4.742486,30.1765464 4.77716047,30.1756889 4.81119282,30.1756889 Z" id="Shape" fill="#6D184E"></path>
                <path d="M25.3607408,27.1965713 C32.3726897,24.2618318 37.9627712,19.7672146 40.8133553,14.212884 C37.645564,7.35401027 30.7669619,2.56611209 22.7569447,2.4370513 C11.6285794,2.25718086 2.37028118,11.2118989 2.17614694,22.3580779 C2.14229712,24.2287568 2.36637056,26.0951647 2.84202524,27.9044762 C9.14956866,31.1024826 17.2561179,30.5888121 25.3607408,27.1965713 Z" id="Path" fill="#F9A332"></path>
                <g opacity="0.5" transform="translate(4.209955, 2.434371)" fill="#FFFFFF" id="Path">
                    <path d="M35.9786181,10.5397861 C32.5869409,4.34958457 26.0653576,0.122950773 18.5469901,0.00267983375 C18.4168538,0.00053596675 18.2870029,-0.00032158005 18.1574374,0 L18.1424546,0 C18.0902289,0 18.0383599,0.000893277917 17.9868476,0.00246544705 C10.124732,0.0916503143 3.26903222,4.73505185 0,11.4408534 C3.37134332,6.21775027 8.90812886,2.52515375 15.2899441,1.63309069 C15.4560391,2.36029038 16.6694317,2.92477056 18.1424546,2.92477056 C19.6420185,2.92477056 20.8725342,2.33970925 21.0028846,1.59364354 C27.1678774,2.36414934 32.5312906,5.71715733 35.9786181,10.5397861 Z"></path>
                </g>
                <g opacity="0.3" transform="translate(3.148517, 8.056341)" fill="#6D184E" id="Path">
                    <path d="M27.3142938,14.0301088 C21.2858585,16.5532259 15.256353,17.4832354 9.9669976,16.4790481 C6.56183597,15.8324578 4.09802205,12.8496956 4.12713148,9.37941813 C4.12713148,9.31724599 4.12841572,9.25485946 4.12969996,9.19268732 C4.18318461,5.98051107 5.00527251,2.82806351 6.52694745,0 L6.52694745,0 C2.60552145,3.62785174 0.103180341,8.78213679 0.00322368236,14.5189105 C-0.0173971439,15.6804483 0.0609400647,16.8416311 0.237383393,17.9898312 C0.439834549,19.3234063 1.34785807,20.4423865 2.60980225,20.9134226 C3.29874382,21.1678064 4.00140116,21.3832467 4.71445712,21.5587266 C10.0399852,22.6105077 16.1262113,21.6873586 22.2122234,19.1408734 C27.8979807,16.761181 32.6483835,13.3558626 35.7609525,9.19182977 C33.309767,11.0867938 30.4553301,12.7154896 27.3142938,14.0301088 Z"></path>
                </g>
                <path d="M12.488806,10.1894888 C12.2790468,10.8502286 11.9164632,11.3336706 11.6857281,11.2601359 C11.454993,11.1866013 11.4378698,10.5824596 11.647629,9.92171977 C11.8573881,9.26097996 12.2197578,8.77753796 12.4504928,8.85107259 C12.6666732,8.91989072 12.697923,9.45585747 12.5219822,10.0788652 L12.488806,10.1894888 Z" id="Path" fill="#FCE69F"></path>
                <path d="M15.9130172,10.6139744 C15.794439,11.2972248 15.5007762,11.8252593 15.2623357,11.7836683 C15.0238952,11.7420772 14.9250088,11.1458678 15.0433728,10.4628318 C15.1617369,9.77979578 15.4553998,9.25154695 15.6940543,9.29313797 C15.917512,9.33194196 16.0208933,9.85869008 15.9307825,10.4999207 L15.9130172,10.6139744 Z" id="Path" fill="#FCE69F"></path>
                <path d="M20.3333703,10.4767669 C20.4296883,11.1628044 20.3119663,11.7562268 20.0720275,11.7900999 C19.8320887,11.823973 19.5555491,11.2865055 19.4592311,10.5998249 C19.3629132,9.91314431 19.4806351,9.32036508 19.7205739,9.28670637 C19.9453159,9.25497714 20.2049463,9.7246984 20.315391,10.3627132 L20.3333703,10.4767669 Z" id="Path" fill="#FCE69F"></path>
                <path d="M24.0300544,9.05688383 C24.3962767,9.64537532 24.5287675,10.2349387 24.3232891,10.3633564 C24.1178108,10.491774 23.6473509,10.1129527 23.2811286,9.52467561 C22.9149062,8.9363985 22.7824155,8.34662069 22.9878938,8.21820305 C23.1805298,8.09793212 23.6086097,8.42165603 23.9675547,8.95998104 L24.0300544,9.05688383 Z" id="Path" fill="#FCE69F"></path>
                <path d="M26.8654416,6.70206031 C27.3560212,7.19129076 27.6192904,7.73518982 27.4484865,7.90712795 C27.2776826,8.07906609 26.733379,7.8177287 26.2427994,7.32828386 C25.7522198,6.83883903 25.4889507,6.29515435 25.6597546,6.12321622 C25.8198565,5.96221181 26.3097939,6.17959992 26.7823941,6.62145091 L26.8654416,6.70206031 Z" id="Path" fill="#FCE69F"></path>
                <g opacity="0.3" transform="translate(12.527761, 20.566663)" fill="#6D184E" id="Oval">
                    <circle cx="0.5" cy="0.5" r="1"></circle>
                </g>
                <g opacity="0.3" transform="translate(19.249686, 16.600937)" fill="#6D184E" id="Oval">
                    <circle cx="0.5" cy="0.5" r="1"></circle>
                </g>
                <g opacity="0.39" transform="translate(20.627033, 20.945270)" fill="#6D184E" id="Oval">
                    <g opacity="0.3">
                        <circle cx="0.5" cy="0.5" r="1"></circle>
                    </g>
                </g>
                <g opacity="0.39" transform="translate(24.649058, 15.835363)" fill="#6D184E" id="Oval">
                    <g opacity="0.3">
                        <circle cx="0.5" cy="0.5" r="1"></circle>
                    </g>
                </g>
                <g opacity="0.3" transform="translate(28.951475, 19.252043)" fill="#6D184E" id="Oval">
                    <circle cx="0.5" cy="0.5" r="1"></circle>
                </g>
                <g opacity="0.3" transform="translate(29.509049, 12.935354)" fill="#6D184E" id="Oval">
                    <circle cx="0.5" cy="0.5" r="1"></circle>
                </g>
                <g opacity="0.3" transform="translate(32.504752, 9.358312)" fill="#6D184E" id="Oval">
                    <circle cx="0.5" cy="0.5" r="1"></circle>
                </g>
                <g opacity="0.39" transform="translate(12.611451, 16.231120)" fill="#6D184E" id="Oval">
                    <g opacity="0.3">
                        <circle cx="0.5" cy="0.5" r="1"></circle>
                    </g>
                </g>
                <g opacity="0.3" transform="translate(36.592915, 13.289949)" fill="#6D184E" id="Oval">
                    <circle cx="0.5" cy="0.5" r="1"></circle>
                </g>
                <g opacity="0.39" transform="translate(33.890019, 17.848668)" fill="#6D184E" id="Oval">
                    <g opacity="0.3">
                        <circle cx="0.5" cy="0.5" r="1"></circle>
                    </g>
                </g>
                <path d="M12.3685155,30.4777597 C9.58021705,30.4777597 6.97663504,30.0329073 4.60357407,29.1485622 C3.21382376,28.6268211 2.21327927,27.3945847 1.98650755,25.9254726 C1.80328686,24.74302 1.72172374,23.5469985 1.74271604,22.3505743 C1.8383919,16.8446951 4.08367102,11.6901957 8.06481417,7.83809543 C12.0459573,3.98599521 17.2651076,1.91116072 22.764008,2.00291823 C29.8987284,2.1170816 36.4702364,5.90866805 40.1483331,12.0332144 C40.9488426,13.3624119 40.9126698,15.0646423 40.056296,16.3691854 C37.008581,21.0121582 31.9846352,24.8949157 25.527906,27.5970457 L25.527906,27.5970457 C21.7875578,29.1620686 18.1103514,30.1008679 14.5990259,30.3855735 C13.8434649,30.447031 13.0999614,30.4777597 12.3685155,30.4777597 Z M22.426253,2.86861172 C11.6564046,2.86861172 2.79878917,11.5484861 2.60957785,22.3655814 C2.58954538,23.5121412 2.66774257,24.6583091 2.84330948,25.7914809 C3.02154711,26.9502842 3.81013987,27.9226025 4.90601252,28.3347503 C10.5731484,30.4460305 17.7781613,29.8997732 25.1935756,26.7958826 L25.1935756,26.7958826 C31.490417,24.1606412 36.3790895,20.3902223 39.3317707,15.8923894 C40.0057825,14.8654771 40.034892,13.5268465 39.4058285,12.4821401 C35.8489126,6.574929 29.6227043,2.98202229 22.7498814,2.87118437 C22.6420053,2.86968366 22.5339151,2.86861172 22.426253,2.86861172 Z" id="Shape" fill="#6D184E"></path>
                <path d="M34.8741746,43.2841493 C34.7124807,44.1573094 34.0979974,44.8777402 33.2621946,45.1740624 C32.4263919,45.4703845 31.4962479,45.2975797 30.8221391,44.7207417 C30.1480303,44.1439037 29.8323697,43.250668 29.9940637,42.3775079 C30.2440623,41.0268717 30.9880652,42.4967069 32.3716195,41.9875385 C34.0008916,41.3883277 35.1235312,41.934585 34.8741746,43.2841493 Z" id="Path" fill="#FCAF15"></path>
                <g opacity="0.5" transform="translate(31.444826, 41.748848)" fill="#FFFFFF" id="Path">
                    <path d="M1.88183928,0.0120838141 C2.2671112,0.259057293 2.44626264,0.70819743 2.33132318,1.33120518 C2.12019216,2.46832051 1.15365527,3.30914418 0,3.35930336 C0.693029296,3.66433073 1.48732744,3.63484951 2.15591739,3.27928421 C2.82450734,2.9237189 3.29383131,2.28118855 3.42977623,1.53530132 C3.62647895,0.470013806 2.96744993,-0.0910361887 1.88183928,0.0120838141 Z"></path>
                </g>
                <g opacity="0.3" transform="translate(29.952175, 41.793733)" fill="#6D184E" id="Path">
                    <path d="M2.30322077,1.99979914 C1.34432178,1.82164379 0.663032603,0.879843018 0.413462016,0 C0.240731773,0.0229393769 0.118086879,0.17150936 0.0416746149,0.583774985 C-0.120019358,1.4569351 0.195641218,2.35017077 0.869750054,2.92700874 C1.54385889,3.50384672 2.47400281,3.67665159 3.30980559,3.38032943 C4.14560837,3.08400727 4.76009167,2.36357647 4.92178558,1.49041634 C4.98043252,1.17333841 4.96095489,0.902568008 4.87897759,0.678533906 C4.34880062,1.49513285 3.31991056,2.18867382 2.30322077,1.99979914 Z"></path>
                </g>
                <path d="M32.4405403,45.7515258 C32.2600948,45.7514615 32.0800392,45.7347401 31.9026579,45.7015737 C30.3197635,45.4075057 29.274565,43.8838642 29.5681242,42.2983992 C29.6235605,41.9995442 29.7271558,41.6338005 30.0409384,41.4526437 C30.3660651,41.2650553 30.7095992,41.3883277 31.0124658,41.4968074 C31.3703406,41.6254394 31.7402016,41.7572872 32.2224336,41.5799894 C33.3026933,41.1825165 34.2489639,41.2309679 34.8189523,41.7126948 C35.2579483,42.0837981 35.4289662,42.6699314 35.3005422,43.3634724 C35.0442299,44.7445804 33.8430291,45.7475629 32.4405403,45.7515258 L32.4405403,45.7515258 Z M30.4784361,42.2355839 C30.4525796,42.3077231 30.4333084,42.3820625 30.4208593,42.4576886 C30.2145812,43.5715009 30.9488226,44.6419166 32.0608335,44.8485289 C33.1728443,45.0551413 34.2415288,44.3197105 34.447807,43.2058981 C34.4966081,42.9417737 34.5036715,42.5841767 34.2594519,42.3772935 C33.944171,42.1105965 33.2780787,42.1178856 32.5214474,42.3961596 C31.7440543,42.6821514 31.1280473,42.4604756 30.7207293,42.3155502 C30.6434609,42.2870367 30.5454306,42.2518773 30.4788642,42.2347264 L30.4784361,42.2355839 Z" id="Shape" fill="#6D184E"></path>
                <path d="M38.101255,26.1653713 C38.2763397,26.2459807 38.4809619,26.2253995 38.6470569,26.1278536 C39.333055,25.7241634 41.52461,24.390035 41.8936149,23.602807 C42.3047857,22.7257511 36.8623918,25.595317 38.101255,26.1653713 Z" id="Path" fill="#E5525F"></path>
            </g>
        </g>
    </g>
</svg>