<svg xmlns="http://www.w3.org/2000/svg" viewBox="0 0 205.81 186.42"><defs><style>.cls-1{fill:none;stroke:#313131;stroke-linecap:round;stroke-linejoin:round;stroke-width:3px;}.cls-2{fill:#bebebe;}.cls-3{fill:#9d9d9d;}.cls-4{fill:#646464;}.cls-5,.cls-6,.cls-7{fill:#c7c7c7;}.cls-5,.cls-6{isolation:isolate;}.cls-5{opacity:0.3;}.cls-6{opacity:0.4;}.cls-8{fill:#fff;}.cls-9{fill:#333;}.cls-10{fill:#9f9f9f;}.cls-11{fill:#c1c1c1;fill-rule:evenodd;}.cls-12{fill:#e3e3e3;}.cls-13{fill:#2e2e2e;}</style></defs><g id="Livello_2" data-name="Livello 2"><g id="Livello_1-2" data-name="Livello 1"><path class="cls-1" d="M64.56,161.78H181.34"/><path class="cls-1" d="M192.74,161.78h11.57"/><path class="cls-2" d="M67.12,152.91a6.44,6.44,0,1,0-6.44-6.44A6.44,6.44,0,0,0,67.12,152.91Z"/><path class="cls-3" d="M130.18,126.11c.08,10.18.95,23.06,1.27,24.42-.08,1.43-3.1,6-5.57,2.86s-7.47-9.78-5.16-22.35S130.18,126.11,130.18,126.11Z"/><path class="cls-4" d="M66.24,152.83a.48.48,0,0,0,.08.32c0,.08.08.24.08.32s.08.24.16.32a1.1,1.1,0,0,1,.24.32,6.53,6.53,0,0,0,1.91,1.51c.16.08.39.16.55.23s.24.08.32.16.24.08.32.16l.32.08a6.66,6.66,0,0,0,1.35.4c.24.08.4.08.64.16s.32.08.55.08.32.08.48.08a7.2,7.2,0,0,0,3.5-.32,9.7,9.7,0,0,0,5-4.14,19.43,19.43,0,0,0,2.47.4,53.59,53.59,0,0,0,11.76.56,31.32,31.32,0,0,0,4.3-.88c.48-.15,1-.31,1.51-.47.95-.32,1.83-.72,2.78-1.12a28.8,28.8,0,0,0,6.92-4.29c.24-.16.48-.4.72-.56a17.28,17.28,0,0,0,2.78-3.26,30.33,30.33,0,0,1,5.41-6.52c3.1-2.94,6.76-5.49,10.1-8.19,1-.79,2.06-1.67,3-2.46a33.54,33.54,0,0,0,7.79-9.55c2.07-4,2.07-7.71,1.75-12.08a23.91,23.91,0,0,1-.32-3.19,7.58,7.58,0,0,0,3-4,13.45,13.45,0,0,0-.72-10.42,7.55,7.55,0,0,0-.48-.87,40.26,40.26,0,0,0-5.64-8.19l-3.9-3.9H101.15s-.39,2.31-1,5.17c-.08.24-.08.47-.16.71a8.93,8.93,0,0,1-.32,1.43c-.08.24-.08.48-.16.72,0,.08,0,.08-.08.16-.08.56-.24,1-.32,1.59A23.39,23.39,0,0,1,98,87.54c0,.08-.08.24-.08.32a10.8,10.8,0,0,1-.71,1.59c-1.91,3.1-11.61,12-18.37,17S69,120,67.2,133.75C65.21,147.43,65.92,150.21,66.24,152.83Z"/><path class="cls-4" d="M127.32,149.1c4.53-.48,4.45,0,7,0s3.18,1.27,4.14,2.46a22.3,22.3,0,0,1,1.83,4.77,1.47,1.47,0,0,1-1.35,1.91c-2.87,0-8,.08-8.91,0-1.27-.16-4-.48-5.17-2.46a10.82,10.82,0,0,1-.87-2.63,3.31,3.31,0,0,1,2.78-3.9Z"/><path class="cls-5" d="M66.24,152.83c.24,2.63,6.76,5.09,10.34,3.74a9.29,9.29,0,0,0,5-4.13,59.64,59.64,0,0,0,14.24,1,31.53,31.53,0,0,0,15.42-6.84l-.55-12.09s-.48-10.57-1-15.19,3.26-4.53,3.1-10.49,2.15-16.54,5.25-26.25L107.28,74.5l-7.4,4.22c-.72,4-1.91,9-2.94,10.81-1.91,3.1-11.61,12-18.37,17S68.71,120.07,67,133.83C65.21,147.43,65.92,150.21,66.24,152.83Z"/><path class="cls-6" d="M66.24,152.83a.48.48,0,0,0,.08.32c0,.08.08.24.08.32s.08.24.16.32a1.19,1.19,0,0,1,.24.31,6.39,6.39,0,0,0,1.91,1.52c.16.08.39.15.55.23s.24.08.32.16.24.08.32.16l.32.08a6.66,6.66,0,0,0,1.35.4c.24.08.4.08.64.16,1.11-.72,1.75-1.19,1.75-1.19l-.48-2.87c-.16-.87-.32-2.06-.56-3.65-1-6.61-.32-19.65,8.51-19.25-1-6.68,2.71-14.07,5.89-18.77S93,109,95.74,112.2c.32-1.36-1.11-6.76-2.86-11.53,3.58,4.29,6.76,5.8,15.27,6.6-3.82-3.18-4.29-4.85-7.39-11.85A71.84,71.84,0,0,0,117.38,100c11.53,1.51,21.47,1,28.15-3.1a13.45,13.45,0,0,0-.72-10.42,7.55,7.55,0,0,0-.48-.87c-6.12-.56-16.54-1.44-26.32-2.31-7.16-.64-14-1.27-18.61-1.67,0,.08,0,.08-.08.16-.08.56-.23,1-.31,1.59a24.21,24.21,0,0,1-1.2,4.21c0,.08-.08.24-.08.32A9.84,9.84,0,0,1,97,89.53c-1.91,3.1-11.61,12-18.37,17S68.79,120.07,67,133.83C65.21,147.43,65.92,150.21,66.24,152.83Z"/><path class="cls-3" d="M112,157.52s-.64-9.62-.72-10.89c-.08-.87-5.25,3.26-10-5.57s-5.49-10.41-5.33-12.64c-1.43,11.21,3,18.77,3.9,22.82s1.67,3.9,1.67,3.9l8,1.59Z"/><path class="cls-4" d="M104,151c4.53-.55,4.45,0,7,0s3.19,1.36,4.14,2.63A23.41,23.41,0,0,1,117,158.8a1.48,1.48,0,0,1-1.35,2c-2.87,0-9.23-.07-10.1-.15a4.36,4.36,0,0,1-3.9-2.55,12.83,12.83,0,0,1-.87-2.86,3.58,3.58,0,0,1,2.78-4.22Z"/><path class="cls-4" d="M83.34,152.36c2.07,1.27,3.26,4.29,3.9,6.44a1.48,1.48,0,0,1-1.36,2c-2.86,0-9.22-.07-10.1-.15-5-.64-5.56-6.13-1.75-8.27C76.42,150.92,81,150.84,83.34,152.36Z"/><path class="cls-4" d="M138.5,91.41a14.7,14.7,0,0,1-2.2,1.75A26.74,26.74,0,0,1,133,95.05a27.84,27.84,0,0,1-11.37,2.85,28.84,28.84,0,0,1-10.23-1.41A21.82,21.82,0,0,1,108,95.08c-5.92-3.17-9.32-5.74-10-12.6a108.68,108.68,0,0,1-.58-12.15c0-.58.55-1.39.69-1.9s.49-1.3.77-1.91c.5-1.22,1.06-2.53,1.64-3.67a16.58,16.58,0,0,1,5.14-6.07c3.49-2.4,7.79-3.25,12-3.6a24.29,24.29,0,0,1,9.38.61,18.32,18.32,0,0,1,7.2,4.26,78,78,0,0,1,6.2,7.1A114.32,114.32,0,0,1,143.93,77C145.54,83.7,143.12,86.89,138.5,91.41Z"/><path class="cls-7" d="M112,80.38c-.78.91-1.43,4-5.92,2.69-6.39-1.87-7.17-10.18-4.33-13.16,5.07-5.39,11.47-3.94,13.42,2.09C117.22,78.43,113.59,78.62,112,80.38Z"/><path class="cls-7" d="M98.71,60.84c1.59-2.4,4.08-1.72,3.33,1.07-1.25,4.48-4,6.61-3.61,23.25,0,2.94-9.7-3.33-10.45-13.7-.18-1.94,2-2.62,2-2.62C91.31,68.44,96.2,64.66,98.71,60.84Z"/><path class="cls-7" d="M135,88.21a11.27,11.27,0,0,1-.5,5.78c-.92.61-1.93,1.15-2.93,1.68a24.92,24.92,0,0,1-9.92,2.52,25.9,25.9,0,0,1-9-1.24,12,12,0,0,1-2.62-5.74,11.7,11.7,0,0,1,10.48-13.54A13.11,13.11,0,0,1,135,88.21Z"/><path class="cls-8" d="M108.42,79.91a4.43,4.43,0,0,0,3.7-5.31,5,5,0,0,0-5.31-4.22,4.42,4.42,0,0,0-3.69,5.31A5,5,0,0,0,108.42,79.91Z"/><path class="cls-9" d="M111.74,75.12a3.47,3.47,0,0,1-2.88,4.13A3.91,3.91,0,0,1,104.73,76a1.69,1.69,0,0,0,1.24.43,1.58,1.58,0,0,0,1.31-1.89A1.83,1.83,0,0,0,105.47,73a3.26,3.26,0,0,1,2.14-1.17A3.81,3.81,0,0,1,111.74,75.12Z"/><path class="cls-8" d="M134.25,76.22a4.41,4.41,0,0,0,3.69-5.3,5,5,0,0,0-5.31-4.23A4.43,4.43,0,0,0,128.94,72,5,5,0,0,0,134.25,76.22Z"/><path class="cls-9" d="M129.45,72.43a3.93,3.93,0,0,0,4.14,3.3,3.48,3.48,0,0,0,2.87-4.14,1.49,1.49,0,0,1-1,.7,1.77,1.77,0,0,1-1.89-1.5,1.62,1.62,0,0,1,1.24-1.88,3.57,3.57,0,0,0-2.44-.62A3.44,3.44,0,0,0,129.45,72.43Z"/><path class="cls-10" d="M120.92,78.69a6.88,6.88,0,0,0-1.82.47c-.73.34-1.82.89-1.63,2,.22,1.31,3.36,2.18,4.13,2.09s3.51-1.59,3.28-3-1.45-1.58-2.48-1.63A4.55,4.55,0,0,0,120.92,78.69Z"/><path class="cls-10" d="M121.74,82.83l-.29-.37-.16.42s.25,2.82-.2,3.76c.46.52.83.47,1,.37.23.06.6,0,.8-.58A14.23,14.23,0,0,1,121.74,82.83Z"/><path class="cls-10" d="M105.59,65.22a7,7,0,0,0-2.53,1.63,5.35,5.35,0,0,0-1.23,2.88c0,.08-.06.09-.14.1a.09.09,0,0,1-.09-.08,4.11,4.11,0,0,1,.17-1.75,3.67,3.67,0,0,1,.82-1.59,5.61,5.61,0,0,1,1.29-1.15,2.93,2.93,0,0,1,1.67-.28c.1.07.18.14,0,.24Z"/><path class="cls-10" d="M132.41,61.29a7.87,7.87,0,0,1,3,1,6,6,0,0,1,2.14,2.47c0,.08.09.07.16.06a.08.08,0,0,0,.07-.09,4.67,4.67,0,0,0-.75-1.65,4.3,4.3,0,0,0-1.32-1.33,5.93,5.93,0,0,0-1.62-.79,3,3,0,0,0-1.7.12.16.16,0,0,0,0,.24Z"/><path class="cls-7" d="M136.79,54.41c-2.32-1.93-4.49-.69-2.84,1.81,2.67,4,6,5.41,11.14,21.46.94,2.83,8.22-5.49,5.51-15.62-.47-1.91-2.8-2-2.8-2C146.41,60,140.46,57.48,136.79,54.41Z"/><path class="cls-11" d="M117.85,94.89a4.54,4.54,0,0,1,4.46-4.24h2.06a4.52,4.52,0,0,1,4.54,4.45v10.81a1.59,1.59,0,1,0,3.18,0V95.1a7.7,7.7,0,0,0-7.72-7.63h-2.06a7.72,7.72,0,0,0-7.63,7.19v0c-.11,1.83-.21,4.13-.33,6.79-.49,10.57-1.23,26.85-3.8,42.09-1.61,9.54-3.92,18.53-7.27,25.38s-7.6,11.25-12.9,12.23h0c-26.57,5-48.74.52-62.82-8a6.75,6.75,0,0,1-1.66-1.29,2.48,2.48,0,0,1,.49-.31,11.41,11.41,0,0,1,2.28-.87c2-.58,4.64-1.1,7.62-1.64l2.09-.37c2.35-.41,4.82-.85,7.19-1.34a2.63,2.63,0,0,0,1.74-1.13A2.75,2.75,0,0,0,45,162H1.59a1.59,1.59,0,0,0,0,3.18H40.11l-2.27.4-2.13.38c-3,.54-5.78,1.08-8,1.72a16,16,0,0,0-2.89,1.11,4.33,4.33,0,0,0-2,1.94,3,3,0,0,0,.44,3,8.93,8.93,0,0,0,2.6,2.17h0c14.87,9,37.87,13.46,65.05,8.4,6.78-1.25,11.65-6.75,15.18-14s5.91-16.6,7.54-26.25c2.62-15.46,3.37-32,3.85-42.58C117.64,98.9,117.74,96.66,117.85,94.89Z"/><path class="cls-10" d="M130.85,90.62c.91,3.87-2.24,5.76-6.49,6.77s-7.92.72-8.83-3.15,1.76-7.77,6-8.77S129.94,86.75,130.85,90.62Z"/><path class="cls-12" d="M126.76,126.11a1.42,1.42,0,0,1-1.43-1.43v-5.56a1.43,1.43,0,1,1,2.86,0v5.56A1.38,1.38,0,0,1,126.76,126.11Z"/><path class="cls-12" d="M134.16,126.11a1.43,1.43,0,0,1-1.44-1.43v-5.56a1.44,1.44,0,1,1,2.87,0v5.56A1.38,1.38,0,0,1,134.16,126.11Z"/><path class="cls-12" d="M137.89,119.19H123.26v-1.67c0-4,3.26-11,7.32-11s7.31,7,7.31,11v1.67Z"/><path class="cls-13" d="M199.68,122H169.54a2.22,2.22,0,0,1-2.22-2.23V87.62a2.21,2.21,0,0,1,2.22-2.22h30.14a2.22,2.22,0,0,1,2.23,2.22v32.13A2.18,2.18,0,0,1,199.68,122Z"/><path class="cls-4" d="M195.94,103.05a11.58,11.58,0,0,1-4.61,9.23h-13.6a11.54,11.54,0,0,1,0-18.45h13.6A11.66,11.66,0,0,1,195.94,103.05Z"/><path class="cls-13" d="M180.28,103.69a1.06,1.06,0,0,1-1-1V99.23a1,1,0,0,1,2.07,0v3.42A1.06,1.06,0,0,1,180.28,103.69Z"/><path class="cls-13" d="M188.63,103.69a1.06,1.06,0,0,1-1-1V99.23a1,1,0,0,1,2.07,0v3.42A1.06,1.06,0,0,1,188.63,103.69Z"/><path class="cls-13" d="M185.45,108.62h-2.07a1,1,0,0,1-1-1v-1a2,2,0,0,1,4,0v1A1,1,0,0,1,185.45,108.62Z"/><path class="cls-4" d="M171,90.25a1.36,1.36,0,1,0-1.35-1.35A1.36,1.36,0,0,0,171,90.25Z"/><path class="cls-4" d="M198.41,90.25a1.36,1.36,0,1,0-1.35-1.35A1.35,1.35,0,0,0,198.41,90.25Z"/><path class="cls-4" d="M171,119.91a1.35,1.35,0,1,0-1.35-1.35A1.35,1.35,0,0,0,171,119.91Z"/><path class="cls-4" d="M198.41,119.91a1.35,1.35,0,1,0-1.35-1.35A1.34,1.34,0,0,0,198.41,119.91Z"/><path class="cls-2" d="M107.84,0l4.88,1.78L114,33.66l-2.65-1.11Z"/><path class="cls-2" d="M111.57,36.18,114,37.35v3.13l-2.41-1Z"/><path class="cls-2" d="M118.07,16l4.88,1.6V38.14L120.24,37Z"/><path class="cls-2" d="M120.48,40.48l2.47,1.1v3l-2.47-.92Z"/></g></g></svg>