<svg xmlns="http://www.w3.org/2000/svg" xmlns:xlink="http://www.w3.org/1999/xlink" viewBox="0 0 147.57 117.94"><defs><style>.cls-1{fill:#2e2e2e;}.cls-2{fill:#646464;}.cls-3{fill:url(#Sfumatura_senza_nome_445);}.cls-4{fill:none;stroke:#a3a3a3;stroke-linecap:round;stroke-linejoin:round;stroke-width:5px;}.cls-5{fill:#a3a3a3;}</style><linearGradient id="Sfumatura_senza_nome_445" x1="67.72" y1="-1950.99" x2="67.72" y2="-2039.81" gradientTransform="matrix(1, 0, 0, -1, 0, -1926.13)" gradientUnits="userSpaceOnUse"><stop offset="0" stop-color="#646464"/><stop offset="1" stop-color="#646464"/></linearGradient></defs><g id="Livello_2" data-name="Livello 2"><g id="Livello_1-2" data-name="Livello 1"><path class="cls-1" d="M70.3,117.94a50.8,50.8,0,1,0-50.7-50.8A50.72,50.72,0,0,0,70.3,117.94Z"/><path class="cls-1" d="M117.7,33.84a4.1,4.1,0,1,0-4.1-4.1A4.11,4.11,0,0,0,117.7,33.84Z"/><path class="cls-1" d="M123.7,17.84a2.8,2.8,0,1,0-2.8-2.8A2.8,2.8,0,0,0,123.7,17.84Z"/><path class="cls-1" d="M22.3,33.74a2.8,2.8,0,1,0-2.8-2.8A2.8,2.8,0,0,0,22.3,33.74Z"/><path class="cls-1" d="M5.2,87.74A5.2,5.2,0,1,0,0,82.54,5.2,5.2,0,0,0,5.2,87.74Z"/><path class="cls-2" d="M147.57,51.19h-5v-5h-4.26v5h-5v4.39h5v5h4.26v-5h5Z"/><path class="cls-2" d="M65.47,4.24H61.23V0H57.59V4.24H53.35V8h4.24v4.24h3.64V8h4.24Z"/><path class="cls-2" d="M15.55,46.55H11.93V42.93H8.82v3.62H5.2v3.21H8.82v3.62h3.11V49.76h3.62Z"/><path class="cls-3" d="M106,57.34,96,32.89a9.7,9.7,0,0,0-11-5.82L59.08,32.66A7.83,7.83,0,0,0,54,36.54L29.35,83.42a4,4,0,0,0,1.71,5.44L75.61,112.3a4,4,0,0,0,5.44-1.71l24.6-46.88A7.3,7.3,0,0,0,106,57.34ZM81.2,47.48A6.5,6.5,0,1,1,90,44.77,6.45,6.45,0,0,1,81.2,47.48Z"/><path class="cls-4" d="M84.39,41.51C104.65,31,112.64,15.42,102.08,8.67s-21,0-23.6,19.64"/><path class="cls-5" d="M79.1,75.33a2.91,2.91,0,1,0-1.14-4A2.82,2.82,0,0,0,79.1,75.33Z"/><path class="cls-5" d="M71.29,78.91,70,78.21a5.13,5.13,0,0,0-5-5.47,4.75,4.75,0,0,0-3.19.92L60.52,73a6.51,6.51,0,0,1,10.77,6Z"/><path class="cls-5" d="M59.52,64.49a2.91,2.91,0,1,0-1.14-3.95A3,3,0,0,0,59.52,64.49Z"/></g></g></svg>