<svg xmlns="http://www.w3.org/2000/svg" xmlns:xlink="http://www.w3.org/1999/xlink" viewBox="0 0 135.45 101.6"><defs><style>.cls-1{fill:#2e2e2e;}.cls-2{fill:#474747;}.cls-3{isolation:isolate;opacity:0.2;}.cls-4{fill:url(#Sfumatura_senza_nome_127);}.cls-5{fill:url(#Sfumatura_senza_nome_127-2);}.cls-6{fill:url(#Sfumatura_senza_nome_127-3);}.cls-7{fill:#444;}.cls-8{fill:#323232;}.cls-9{fill:url(#Sfumatura_senza_nome_128);}.cls-10{fill:#a1a1a1;}.cls-11{fill:#9f9f9f;}.cls-12{fill:none;stroke:#707070;stroke-miterlimit:10;stroke-width:2px;stroke-dasharray:4 4;}.cls-13{fill:#b7b7b7;}.cls-14{fill:#4e4e4e;}</style><linearGradient id="Sfumatura_senza_nome_127" x1="67.7" y1="-2648.75" x2="67.7" y2="-2569.27" gradientTransform="translate(0 2660)" gradientUnits="userSpaceOnUse"><stop offset="0" stop-color="#646464"/><stop offset="1" stop-color="#646464"/></linearGradient><linearGradient id="Sfumatura_senza_nome_127-2" x1="66.55" y1="-2648.67" x2="66.55" y2="-2572.77" xlink:href="#Sfumatura_senza_nome_127"/><linearGradient id="Sfumatura_senza_nome_127-3" x1="62.47" y1="-2648.46" x2="62.47" y2="-2577.09" xlink:href="#Sfumatura_senza_nome_127"/><linearGradient id="Sfumatura_senza_nome_128" x1="53.86" y1="-2651.1" x2="81.35" y2="-2651.1" gradientTransform="translate(0 2660)" gradientUnits="userSpaceOnUse"><stop offset="0" stop-color="#b9b9b9"/><stop offset="1" stop-color="#9d9d9d"/></linearGradient></defs><g id="Livello_2" data-name="Livello 2"><g id="Livello_1-2" data-name="Livello 1"><path class="cls-1" d="M120.9,78.5a4.1,4.1,0,1,0-4.1-4.1A4.12,4.12,0,0,0,120.9,78.5Z"/><path class="cls-1" d="M113,89.9a2.8,2.8,0,0,0,2.8-2.8,2.8,2.8,0,1,0-2.8,2.8Z"/><path class="cls-1" d="M22.3,21.5a2.8,2.8,0,0,0,2.8-2.8,2.8,2.8,0,1,0-2.8,2.8Z"/><path class="cls-1" d="M5.2,75.5a5.2,5.2,0,0,0,0-10.4A5.16,5.16,0,0,0,0,70.3,5.23,5.23,0,0,0,5.2,75.5Z"/><path class="cls-1" d="M68.4,101.6A50.8,50.8,0,1,0,17.7,50.8,50.72,50.72,0,0,0,68.4,101.6Z"/><path class="cls-2" d="M97.8,7.6a2.73,2.73,0,0,1,2.8,2.8V92.1a2.8,2.8,0,0,1-2.8,2.8H37.4a2.8,2.8,0,0,1-2.8-2.8V10.4a2.8,2.8,0,0,1,2.8-2.8Z"/><path class="cls-3" d="M100.6,16.1V91.9a2.8,2.8,0,0,1-2.8,2.8H42.6l-4.9-4.8L92.6,14.8l4.8-1.7Z"/><path class="cls-4" d="M97.6,14a.84.84,0,0,0-.9-.9h-58a.84.84,0,0,0-.9.9V89a.84.84,0,0,0,.9.9H96.6a.84.84,0,0,0,.9-.9Z"/><path class="cls-5" d="M97.6,14a.84.84,0,0,0-.9-.9h-58a.84.84,0,0,0-.9.9c.7,29.9.9,63.7-2.3,72.5l55.6-.8C94.3,70.4,96.9,43,97.6,14Z"/><path class="cls-6" d="M97.4,13.1s-.1,4.5-1.5,33.2v.6c-1.7,28.2-26.8,34-29.8,34.4-1.4.1-4.1.3-8.8.3-5.9.2-15,.3-29.1.5a.64.64,0,0,1-.6-.9c9.7-19.5,9.9-68,9.9-68Z"/><path class="cls-7" d="M95.8,46.9C94.2,75.1,69,80.9,66,81.3c-1.4.1-4.1.4-8.8.4,12.5-5.8,19.3-16.2,19.1-24.2C82.4,57.8,92.8,57.4,95.8,46.9Z"/><path class="cls-8" d="M81.7,7.8h0l-.6-.6a1.08,1.08,0,0,0-.5.4h-9V7a3.61,3.61,0,0,0-3.5-3.5A3.54,3.54,0,0,0,64.6,7a.9.9,0,0,0,.1.5H55.3a.87.87,0,0,0-.9,1v3a3.54,3.54,0,0,0,3.8,3.7H77.5c2.3,0,4.3-1.4,4.3-3.7V8.4A.61.61,0,0,0,81.7,7.8Z"/><path class="cls-9" d="M81.3,7.8v3.6A4.19,4.19,0,0,1,77.2,15H57.8a4.27,4.27,0,0,1-4.1-3.6V7.8a.92.92,0,0,1,.9-1h9.5V6.3a3.61,3.61,0,0,1,3.5-3.5,3.54,3.54,0,0,1,3.5,3.5v.5h9.5A.92.92,0,0,1,81.3,7.8Z"/><path class="cls-1" d="M67.5,7.9a1.6,1.6,0,1,0-1.6-1.6A1.64,1.64,0,0,0,67.5,7.9Z"/><path class="cls-10" d="M81.2,11.4A4.19,4.19,0,0,1,77.1,15H57.8a4.27,4.27,0,0,1-4.1-3.6Z"/><path class="cls-11" d="M52,46.5a3.16,3.16,0,0,0,3.2-3.2A3.22,3.22,0,0,0,52,40.1a3.16,3.16,0,0,0-3.2,3.2A3,3,0,0,0,52,46.5Z"/><path class="cls-11" d="M77.7,46.4a3.16,3.16,0,0,0,3.2-3.2A3.22,3.22,0,0,0,77.7,40a3.29,3.29,0,0,0-3.2,3.2A3.22,3.22,0,0,0,77.7,46.4Z"/><path class="cls-11" d="M68,50H61.7v1.5H68Z"/><path class="cls-12" d="M130.3,13.3A74,74,0,0,1,129,49.8c-.8,2.4-1.6,5.1-3.4,6.9a10.44,10.44,0,0,1-10.4,3.2,10.26,10.26,0,0,1-7.4-8.1,6.57,6.57,0,0,1,2.3-6.8,6.18,6.18,0,0,1,7.2.7,8.34,8.34,0,0,1,2.8,6.9,16,16,0,0,1-2.3,7.3A32.28,32.28,0,0,1,99,75.2a31.35,31.35,0,0,1-18.2.2"/><path class="cls-13" d="M135.4,10c-.3,1.3-1.7,1.7-3.1.9s-2.6-1.3-2.3-2.4,1.7-1.3,3.4-1.4C135.3,6.9,135.6,8.7,135.4,10Z"/><path class="cls-13" d="M124.1,11.2a2.32,2.32,0,0,0,3.4.7c1.3-1.1,2.3-2,1.7-3.1s-1.5-.7-3.5-.5C124.1,8.6,123.4,10,124.1,11.2Z"/><path class="cls-14" d="M129.2,6.9a1.81,1.81,0,0,1,1.9,1,2.35,2.35,0,0,1,.2.8c.2,1.6-.3,3-1.3,3.1s-2.1-.9-2.2-2.4v-1c.2-.8.6-1.4,1.4-1.5Z"/></g></g></svg>