<svg xmlns="http://www.w3.org/2000/svg" xmlns:xlink="http://www.w3.org/1999/xlink" viewBox="0 0 135.5 105.7"><defs><style>.cls-1{fill:#2e2e2e;}.cls-2{fill:url(#Sfumatura_senza_nome_58);}.cls-3{fill:url(#Sfumatura_senza_nome_57);}.cls-4{fill:#a5a5a5;}.cls-5{fill:#bdbdbd;}.cls-6{fill:url(#Sfumatura_senza_nome_58-2);}</style><linearGradient id="Sfumatura_senza_nome_58" x1="36.98" y1="-2570.55" x2="135.5" y2="-2570.55" gradientTransform="translate(0 2660)" gradientUnits="userSpaceOnUse"><stop offset="0" stop-color="#b9b9b9"/><stop offset="1" stop-color="#9d9d9d"/></linearGradient><linearGradient id="Sfumatura_senza_nome_57" x1="55.74" y1="-2631.93" x2="55.74" y2="-2575.7" gradientTransform="translate(0 2660)" gradientUnits="userSpaceOnUse"><stop offset="0" stop-color="#646464"/><stop offset="1" stop-color="#646464"/></linearGradient><linearGradient id="Sfumatura_senza_nome_58-2" x1="37.2" y1="-2613.16" x2="72.66" y2="-2613.16" xlink:href="#Sfumatura_senza_nome_58"/></defs><g id="Livello_2" data-name="Livello 2"><g id="Livello_1-2" data-name="Livello 1"><path class="cls-1" d="M65,105.7A50.8,50.8,0,1,0,14.3,54.9,50.72,50.72,0,0,0,65,105.7Z"/><path class="cls-1" d="M112.4,21.6a4.1,4.1,0,1,0-4.1-4.1A4.06,4.06,0,0,0,112.4,21.6Z"/><path class="cls-1" d="M118.4,5.6a2.86,2.86,0,0,0,2.8-2.8,2.8,2.8,0,1,0-5.6,0A2.73,2.73,0,0,0,118.4,5.6Z"/><path class="cls-1" d="M17,21.5a2.86,2.86,0,0,0,2.8-2.8,2.8,2.8,0,0,0-5.6,0A2.73,2.73,0,0,0,17,21.5Z"/><path class="cls-1" d="M5.2,82a5.2,5.2,0,0,0,0-10.4A5.2,5.2,0,0,0,5.2,82Z"/><path class="cls-2" d="M135.5,92.3a4.7,4.7,0,0,1-4.7,4.4H98.9a2.19,2.19,0,0,0-2.2,2,2.07,2.07,0,0,0,2.1,2.2h8.1a.9.9,0,0,1,.9.9,1,1,0,0,1-.9,1H59a4.64,4.64,0,0,1-4.7-4.4,4.5,4.5,0,0,1,4.5-4.6h7a2.16,2.16,0,0,0,1.9-2.1,2.05,2.05,0,0,0-2.1-2.1H44a6.9,6.9,0,0,1-7-6.3,6.72,6.72,0,0,1,6.8-7.2h63.7a6.87,6.87,0,0,1,6.8,6.8,6.71,6.71,0,0,1-1.5,4.2,7.46,7.46,0,0,1,1.2.7h17.3A4.3,4.3,0,0,1,135.5,92.3Z"/><path class="cls-3" d="M88,29.3,68.9,33l-32,6.2L22.8,42a5.12,5.12,0,0,0-4.1,5.4l2.8,30.9a5.07,5.07,0,0,0,4.9,4.6l66.4.8Z"/><path class="cls-4" d="M95.9,31.5l4.4,48.7a.76.76,0,0,1-.6.8l-5.3,1.2L89.7,30.6l5.4.1A1,1,0,0,1,95.9,31.5Z"/><path class="cls-5" d="M83.8,27.4l5.4,59a.65.65,0,0,0,.9.5l5.2-2a1.62,1.62,0,0,0,1-1.7L91.4,29.3a1.83,1.83,0,0,0-1.3-1.5l-5.5-.9C84.2,26.6,83.8,27,83.8,27.4Z"/><path class="cls-6" d="M69.6,33l-32,6.2a15.65,15.65,0,0,0-.3,5.3,17.67,17.67,0,1,0,35.2-3.1A16.29,16.29,0,0,0,69.6,33Z"/></g></g></svg>